<?xml version="1.0" encoding="UTF-8" standalone="no"?>
<!DOCTYPE svg PUBLIC "-//W3C//DTD SVG 1.1//EN" "http://www.w3.org/Graphics/SVG/1.1/DTD/svg11.dtd">
<svg width="100%" height="100%" viewBox="0 0 604 234" version="1.1" xmlns="http://www.w3.org/2000/svg" xmlns:xlink="http://www.w3.org/1999/xlink" xml:space="preserve" xmlns:serif="http://www.serif.com/" style="fill-rule:evenodd;clip-rule:evenodd;stroke-linejoin:round;stroke-miterlimit:2;">
    <g transform="matrix(1,0,0,1,0,-1090)">
        <g id="Artboard5" transform="matrix(1.06007,0,0,0.927595,-64.005,-222.158)">
            <rect x="60.378" y="1414.58" width="569.771" height="252.265" style="fill:none;"/>
            <g transform="matrix(0.41229,0,0,0.472952,167.899,857.211)">
                <g transform="matrix(8.76704,0,0,9.83981,893.226,1253.76)">
                    <path d="M0,40.714L-104.709,40.714C-115.179,40.714 -123.662,31.597 -123.662,20.344C-123.662,9.118 -115.179,0 -104.709,0L0,0C10.451,0 18.941,9.118 18.941,20.344C18.941,31.597 10.451,40.714 0,40.714" style="fill:rgb(10,76,79);fill-rule:nonzero;"/>
                </g>
                <g transform="matrix(8.33333,0,0,8.33333,866.534,1275.66)">
                    <path d="M0,40.686L-104.709,40.686C-115.179,40.686 -123.662,31.569 -123.662,20.316C-123.662,9.09 -115.179,-0.028 -104.709,-0.028L0,-0.028C10.451,-0.028 18.941,9.09 18.941,20.316C18.941,31.569 10.451,40.686 0,40.686M0.748,-11.113L-105.456,-11.113C-121.619,-11.113 -134.73,2.945 -134.73,20.316C-134.73,37.7 -121.619,51.785 -105.456,51.785L-13.58,51.79L-13.58,51.793L0.748,51.799C16.91,51.799 30.008,37.72 30.008,20.316C30.008,2.945 16.91,-11.113 0.748,-11.113" style="fill:rgb(246,205,99);fill-rule:nonzero;"/>
                </g>
                <g transform="matrix(8.33333,0,0,8.33333,77.7103,1329.63)">
                    <path d="M0,11.239L0,0L7.312,0L7.312,2.041L2.412,2.041L2.412,4.545L6.864,4.545L6.864,6.586L2.412,6.586L2.412,9.198L7.467,9.198L7.467,11.239L0,11.239Z" style="fill:rgb(242,239,233);fill-rule:nonzero;"/>
                </g>
                <g transform="matrix(8.33333,0,0,8.33333,154.489,1329.63)">
                    <path d="M0,11.239L0,0L2.226,0L7.08,7.312L7.08,0L9.461,0L9.461,11.239L7.235,11.239L2.381,3.911L2.381,11.239L0,11.239Z" style="fill:rgb(242,239,233);fill-rule:nonzero;"/>
                </g>
                <g transform="matrix(8.33333,0,0,8.33333,320.414,1350.12)">
                    <path d="M0,6.322L0,8.332C-0.402,8.517 -0.868,8.675 -1.399,8.803C-1.93,8.932 -2.515,8.997 -3.153,8.997C-4.957,8.997 -6.323,8.484 -7.25,7.458C-8.178,6.433 -8.642,4.957 -8.642,3.029C-8.642,1.844 -8.415,0.826 -7.961,-0.024C-7.508,-0.874 -6.864,-1.529 -6.029,-1.987C-5.194,-2.446 -4.2,-2.675 -3.045,-2.675C-2.499,-2.675 -1.994,-2.618 -1.53,-2.505C-1.066,-2.392 -0.66,-2.247 -0.309,-2.072L-0.309,-0.032C-0.855,-0.238 -1.327,-0.382 -1.724,-0.464C-2.12,-0.547 -2.504,-0.588 -2.875,-0.588C-3.937,-0.588 -4.751,-0.274 -5.318,0.355C-5.885,0.984 -6.168,1.875 -6.168,3.029C-6.168,4.276 -5.89,5.238 -5.333,5.912C-4.777,6.588 -3.958,6.925 -2.875,6.925C-2.442,6.925 -2.002,6.876 -1.553,6.778C-1.105,6.68 -0.587,6.528 0,6.322" style="fill:rgb(242,239,233);fill-rule:nonzero;"/>
                </g>
                <g transform="matrix(8.33333,0,0,8.33333,333.558,1329.63)">
                    <path d="M0,11.239L0,0L7.312,0L7.312,2.041L2.412,2.041L2.412,4.545L6.864,4.545L6.864,6.586L2.412,6.586L2.412,9.198L7.467,9.198L7.467,11.239L0,11.239Z" style="fill:rgb(242,239,233);fill-rule:nonzero;"/>
                </g>
                <g transform="matrix(8.33333,0,0,8.33333,410.332,1329.63)">
                    <path d="M0,11.239L0,0L2.227,0L7.08,7.312L7.08,0L9.461,0L9.461,11.239L7.235,11.239L2.381,3.911L2.381,11.239L0,11.239Z" style="fill:rgb(242,239,233);fill-rule:nonzero;"/>
                </g>
                <g transform="matrix(8.33333,0,0,8.33333,538.644,1406.92)">
                    <path d="M0,-7.312L-1.329,-7.312L-1.329,-0L0,-0C1.041,-0 1.816,-0.296 2.327,-0.889C2.837,-1.481 3.092,-2.401 3.092,-3.648C3.092,-4.895 2.839,-5.818 2.334,-6.416C1.829,-7.013 1.052,-7.312 0,-7.312M-3.741,1.963L-3.741,-9.275L0.031,-9.275C1.865,-9.275 3.252,-8.801 4.189,-7.853C5.127,-6.905 5.597,-5.503 5.597,-3.648C5.597,-1.814 5.13,-0.42 4.197,0.533C3.265,1.487 1.876,1.963 0.031,1.963L-3.741,1.963Z" style="fill:rgb(242,239,233);fill-rule:nonzero;"/>
                </g>
                <g transform="matrix(8.33333,0,0,8.33333,599.581,1329.63)">
                    <path d="M0,11.239L0,0L7.312,0L7.312,2.041L2.411,2.041L2.411,4.545L6.863,4.545L6.863,6.586L2.411,6.586L2.411,9.198L7.467,9.198L7.467,11.239L0,11.239Z" style="fill:rgb(242,239,233);fill-rule:nonzero;"/>
                </g>
                <g transform="matrix(8.33333,0,0,8.33333,696.326,1379.61)">
                    <path d="M0,-0.757L1.175,-0.757C2.112,-0.757 2.765,-0.878 3.13,-1.12C3.496,-1.362 3.679,-1.788 3.679,-2.396C3.679,-3.004 3.496,-3.429 3.13,-3.671C2.765,-3.913 2.112,-4.034 1.175,-4.034L0,-4.034L0,-0.757ZM-2.396,5.241L-2.396,-5.998L1.917,-5.998C3.257,-5.998 4.287,-5.688 5.009,-5.07C5.729,-4.452 6.091,-3.576 6.091,-2.442C6.091,-1.648 5.887,-0.974 5.48,-0.417C5.073,0.139 4.498,0.536 3.757,0.774L6.57,5.241L3.911,5.241L1.53,1.206L0,0.82L0,5.241L-2.396,5.241Z" style="fill:rgb(242,239,233);fill-rule:nonzero;"/>
                </g>
                <g transform="matrix(8.33333,0,0,8.33333,144.442,1470.54)">
                    <path d="M0,11.239L0,6.849L-3.942,0L-1.175,0L1.252,4.669L3.68,0L6.354,0L2.412,6.849L2.412,11.239L0,11.239Z" style="fill:rgb(242,239,233);fill-rule:nonzero;"/>
                </g>
                <g transform="matrix(8.33333,0,0,8.33333,238.485,1470.54)">
                    <path d="M0,11.239L0,0L7.312,0L7.312,2.041L2.412,2.041L2.412,4.545L6.864,4.545L6.864,6.586L2.412,6.586L2.412,9.198L7.467,9.198L7.467,11.239L0,11.239Z" style="fill:rgb(242,239,233);fill-rule:nonzero;"/>
                </g>
                <g transform="matrix(8.33333,0,0,8.33333,315.267,1470.54)">
                    <path d="M0,11.239L0,0L2.226,0L7.08,7.312L7.08,0L9.461,0L9.461,11.239L7.235,11.239L2.381,3.911L2.381,11.239L0,11.239Z" style="fill:rgb(242,239,233);fill-rule:nonzero;"/>
                </g>
                <g transform="matrix(8.33333,0,0,8.33333,438.676,1470.54)">
                    <path d="M0,11.239L-4.143,0L-1.422,0L1.206,8.271L3.865,0L6.478,0L2.334,11.239L0,11.239Z" style="fill:rgb(242,239,233);fill-rule:nonzero;"/>
                </g>
                <g transform="matrix(8.33333,0,0,8.33333,-2987.05,313.276)">
                    <rect x="418.771" y="138.872" width="2.411" height="11.239" style="fill:rgb(242,239,233);"/>
                </g>
                <g transform="matrix(8.33333,0,0,8.33333,565.955,1506.74)">
                    <path d="M0,2.551L2.829,2.551L1.406,-1.87L0,2.551ZM-3.973,6.895L0.294,-4.344L2.628,-4.344L6.926,6.895L4.235,6.895L3.494,4.592L-0.649,4.592L-1.392,6.895L-3.973,6.895Z" style="fill:rgb(242,239,233);fill-rule:nonzero;"/>
                </g>
                <g transform="matrix(8.33333,0,0,8.33333,653.683,1520.52)">
                    <path d="M0,-0.757L1.175,-0.757C2.113,-0.757 2.765,-0.878 3.131,-1.12C3.496,-1.362 3.68,-1.788 3.68,-2.396C3.68,-3.004 3.496,-3.429 3.131,-3.671C2.765,-3.913 2.113,-4.034 1.175,-4.034L0,-4.034L0,-0.757ZM-2.396,5.241L-2.396,-5.998L1.917,-5.998C3.257,-5.998 4.288,-5.689 5.009,-5.07C5.73,-4.452 6.091,-3.576 6.091,-2.442C6.091,-1.648 5.888,-0.974 5.48,-0.417C5.073,0.139 4.499,0.536 3.757,0.773L6.57,5.241L3.911,5.241L1.531,1.206L0,0.82L0,5.241L-2.396,5.241Z" style="fill:rgb(242,239,233);fill-rule:nonzero;"/>
                </g>
            </g>
        </g>
    </g>
</svg>
