<?xml version="1.0" encoding="UTF-8" standalone="no"?>
<!DOCTYPE svg PUBLIC "-//W3C//DTD SVG 1.1//EN" "http://www.w3.org/Graphics/SVG/1.1/DTD/svg11.dtd">
<svg width="100%" height="100%" viewBox="0 0 604 234" version="1.1" xmlns="http://www.w3.org/2000/svg" xmlns:xlink="http://www.w3.org/1999/xlink" xml:space="preserve" xmlns:serif="http://www.serif.com/" style="fill-rule:evenodd;clip-rule:evenodd;stroke-linejoin:round;stroke-miterlimit:2;">
    <g transform="matrix(1,0,0,1,0,-1610.86)">
        <g id="Artboard5" transform="matrix(1.06007,0,0,0.927595,-64.005,298.703)">
            <rect x="60.378" y="1414.58" width="569.771" height="252.265" style="fill:none;"/>
            <g transform="matrix(0.41229,0,0,0.472952,167.899,857.211)">
                <g transform="matrix(8.76704,0,0,9.83981,893.226,1253.76)">
                    <path d="M0,40.714L-104.709,40.714C-115.179,40.714 -123.662,31.597 -123.662,20.344C-123.662,9.118 -115.179,0 -104.709,0L0,0C10.451,0 18.941,9.118 18.941,20.344C18.941,31.597 10.451,40.714 0,40.714" style="fill:rgb(10,76,79);fill-rule:nonzero;"/>
                </g>
                <g transform="matrix(8.33333,0,0,8.33333,866.534,1275.66)">
                    <path d="M0,40.686L-104.709,40.686C-115.179,40.686 -123.662,31.569 -123.662,20.316C-123.662,9.09 -115.179,-0.028 -104.709,-0.028L0,-0.028C10.451,-0.028 18.941,9.09 18.941,20.316C18.941,31.569 10.451,40.686 0,40.686M0.748,-11.113L-105.456,-11.113C-121.619,-11.113 -134.73,2.945 -134.73,20.316C-134.73,37.7 -121.619,51.785 -105.456,51.785L-13.58,51.79L-13.58,51.793L0.748,51.799C16.91,51.799 30.008,37.72 30.008,20.316C30.008,2.945 16.91,-11.113 0.748,-11.113" style="fill:rgb(246,205,99);fill-rule:nonzero;"/>
                </g>
            </g>
            <g transform="matrix(0.94333,0,0,1.07806,17.9068,-290.271)">
                <path d="M138.389,1677.18L148.839,1709.31L159.289,1677.18L170.343,1677.18L155.484,1719.88L142.134,1719.88L127.336,1677.18L138.389,1677.18Z" style="fill:rgb(242,239,233);fill-rule:nonzero;"/>
                <path d="M184.658,1685.39L184.658,1694.33L199.095,1694.33L199.095,1702.13L184.658,1702.13L184.658,1711.61L200.907,1711.61L200.907,1719.88L174.329,1719.88L174.329,1677.18L200.907,1677.18L200.907,1685.39L184.658,1685.39Z" style="fill:rgb(242,239,233);fill-rule:nonzero;"/>
                <path d="M228.692,1719.88L219.451,1703.76L217.095,1703.76L217.095,1719.88L206.766,1719.88L206.766,1677.18L224.404,1677.18C227.786,1677.18 230.645,1677.76 232.981,1678.93C235.317,1680.1 237.068,1681.7 238.236,1683.73C239.404,1685.77 239.988,1688.09 239.988,1690.71C239.988,1693.81 239.132,1696.45 237.421,1698.62C235.709,1700.8 233.223,1702.29 229.961,1703.09L240.109,1719.88L228.692,1719.88ZM217.095,1696.69L223.498,1696.69C225.551,1696.69 227.061,1696.24 228.028,1695.33C228.994,1694.42 229.478,1693.09 229.478,1691.31C229.478,1689.62 228.984,1688.29 227.998,1687.33C227.011,1686.36 225.511,1685.88 223.498,1685.88L217.095,1685.88L217.095,1696.69Z" style="fill:rgb(242,239,233);fill-rule:nonzero;"/>
                <path d="M305.284,1677.48L305.284,1719.88L294.955,1719.88L294.955,1693.37L285.774,1719.88L276.834,1719.88L267.592,1693.31L267.592,1719.88L257.263,1719.88L257.263,1677.48L269.887,1677.48L281.424,1707.02L292.72,1677.48L305.284,1677.48Z" style="fill:rgb(242,239,233);fill-rule:nonzero;"/>
                <path d="M322.74,1685.39L322.74,1694.33L337.177,1694.33L337.177,1702.13L322.74,1702.13L322.74,1711.61L338.989,1711.61L338.989,1719.88L312.411,1719.88L312.411,1677.18L338.989,1677.18L338.989,1685.39L322.74,1685.39Z" style="fill:rgb(242,239,233);fill-rule:nonzero;"/>
                <path d="M382.781,1719.88L372.452,1719.88L355.177,1693.67L355.177,1719.88L344.848,1719.88L344.848,1677.18L355.177,1677.18L372.452,1703.64L372.452,1677.18L382.781,1677.18L382.781,1719.88Z" style="fill:rgb(242,239,233);fill-rule:nonzero;"/>
                <path d="M420.594,1707.87C420.594,1710.12 420.02,1712.19 418.872,1714.09C417.725,1715.98 416.033,1717.49 413.798,1718.62C411.563,1719.74 408.855,1720.31 405.674,1720.31C400.882,1720.31 396.936,1719.14 393.835,1716.8C390.734,1714.47 389.043,1711.21 388.761,1707.02L399.755,1707.02C399.916,1708.63 400.489,1709.9 401.476,1710.83C402.463,1711.75 403.721,1712.21 405.251,1712.21C406.58,1712.21 407.627,1711.85 408.392,1711.13C409.157,1710.4 409.54,1709.43 409.54,1708.23C409.54,1707.14 409.188,1706.23 408.483,1705.51C407.778,1704.78 406.902,1704.19 405.855,1703.73C404.808,1703.26 403.359,1702.71 401.506,1702.07C398.808,1701.14 396.604,1700.24 394.892,1699.38C393.181,1698.51 391.711,1697.22 390.483,1695.51C389.254,1693.8 388.64,1691.58 388.64,1688.84C388.64,1686.3 389.285,1684.11 390.573,1682.25C391.862,1680.4 393.644,1678.98 395.919,1678C398.194,1677.01 400.802,1676.52 403.741,1676.52C408.493,1676.52 412.268,1677.64 415.067,1679.9C417.865,1682.15 419.446,1685.25 419.808,1689.2L408.634,1689.2C408.432,1687.79 407.919,1686.67 407.094,1685.85C406.268,1685.02 405.151,1684.61 403.741,1684.61C402.533,1684.61 401.557,1684.93 400.812,1685.58C400.067,1686.22 399.694,1687.17 399.694,1688.41C399.694,1689.42 400.026,1690.28 400.691,1690.98C401.355,1691.69 402.191,1692.26 403.198,1692.7C404.204,1693.15 405.654,1693.71 407.547,1694.39C410.285,1695.32 412.52,1696.24 414.251,1697.14C415.983,1698.05 417.473,1699.37 418.721,1701.1C419.97,1702.83 420.594,1705.09 420.594,1707.87Z" style="fill:rgb(242,239,233);fill-rule:nonzero;"/>
                <path d="M452.789,1712.09L436.782,1712.09L434.124,1719.88L423.251,1719.88L438.896,1677.48L450.795,1677.48L466.44,1719.88L455.446,1719.88L452.789,1712.09ZM450.131,1704.24L444.815,1688.54L439.44,1704.24L450.131,1704.24Z" style="fill:rgb(242,239,233);fill-rule:nonzero;"/>
                <path d="M496.762,1677.18L496.762,1706.36C496.762,1710.83 495.544,1714.27 493.108,1716.68C490.672,1719.1 487.299,1720.31 482.99,1720.31C478.319,1720.31 474.614,1718.99 471.876,1716.35C469.138,1713.71 467.769,1709.92 467.769,1704.97L477.977,1704.97C477.977,1708.95 479.487,1710.94 482.507,1710.94C485.125,1710.94 486.433,1709.41 486.433,1706.36L486.433,1677.18L496.762,1677.18Z" style="fill:rgb(242,239,233);fill-rule:nonzero;"/>
                <path d="M513.917,1685.39L513.917,1694.33L528.353,1694.33L528.353,1702.13L513.917,1702.13L513.917,1711.61L530.165,1711.61L530.165,1719.88L503.588,1719.88L503.588,1677.18L530.165,1677.18L530.165,1685.39L513.917,1685.39Z" style="fill:rgb(242,239,233);fill-rule:nonzero;"/>
                <path d="M566.709,1707.87C566.709,1710.12 566.135,1712.19 564.988,1714.09C563.84,1715.98 562.149,1717.49 559.914,1718.62C557.679,1719.74 554.971,1720.31 551.79,1720.31C546.998,1720.31 543.051,1719.14 539.951,1716.8C536.85,1714.47 535.159,1711.21 534.877,1707.02L545.87,1707.02C546.031,1708.63 546.605,1709.9 547.592,1710.83C548.578,1711.75 549.837,1712.21 551.367,1712.21C552.696,1712.21 553.743,1711.85 554.508,1711.13C555.273,1710.4 555.655,1709.43 555.655,1708.23C555.655,1707.14 555.303,1706.23 554.598,1705.51C553.894,1704.78 553.018,1704.19 551.971,1703.73C550.924,1703.26 549.474,1702.71 547.622,1702.07C544.924,1701.14 542.719,1700.24 541.008,1699.38C539.296,1698.51 537.826,1697.22 536.598,1695.51C535.37,1693.8 534.756,1691.58 534.756,1688.84C534.756,1686.3 535.4,1684.11 536.689,1682.25C537.977,1680.4 539.759,1678.98 542.035,1678C544.31,1677.01 546.917,1676.52 549.857,1676.52C554.608,1676.52 558.384,1677.64 561.182,1679.9C563.981,1682.15 565.562,1685.25 565.924,1689.2L554.749,1689.2C554.548,1687.79 554.035,1686.67 553.209,1685.85C552.384,1685.02 551.266,1684.61 549.857,1684.61C548.649,1684.61 547.672,1684.93 546.927,1685.58C546.182,1686.22 545.81,1687.17 545.81,1688.41C545.81,1689.42 546.142,1690.28 546.806,1690.98C547.471,1691.69 548.306,1692.26 549.313,1692.7C550.32,1693.15 551.77,1693.71 553.662,1694.39C556.4,1695.32 558.635,1696.24 560.367,1697.14C562.099,1698.05 563.588,1699.37 564.837,1701.1C566.085,1702.83 566.709,1705.09 566.709,1707.87Z" style="fill:rgb(242,239,233);fill-rule:nonzero;"/>
            </g>
        </g>
    </g>
</svg>
