<?xml version="1.0" encoding="UTF-8" standalone="no"?>
<!DOCTYPE svg PUBLIC "-//W3C//DTD SVG 1.1//EN" "http://www.w3.org/Graphics/SVG/1.1/DTD/svg11.dtd">
<svg width="100%" height="100%" viewBox="0 0 833 57" version="1.1" xmlns="http://www.w3.org/2000/svg" xmlns:xlink="http://www.w3.org/1999/xlink" xml:space="preserve" xmlns:serif="http://www.serif.com/" style="fill-rule:evenodd;clip-rule:evenodd;stroke-linejoin:round;stroke-miterlimit:2;">
    <g transform="matrix(1,0,0,1,-1,-1912.23)">
        <g id="Artboard4" transform="matrix(1.08916,0,0,0.413825,-0.858821,1544.84)">
            <rect x="1.707" y="887.806" width="764.522" height="136.153" style="fill:none;"/>
            <g transform="matrix(0.715466,0,0,1.88306,-0.342428,-3331.55)">
                <path d="M26.799,2249.93C31.631,2249.93 35.718,2251.14 39.061,2253.56C42.403,2255.97 44.698,2259.26 45.947,2263.4L41.537,2263.4C40.45,2260.54 38.608,2258.23 36.01,2256.46C33.413,2254.68 30.343,2253.8 26.799,2253.8C23.738,2253.8 20.97,2254.52 18.493,2255.97C16.017,2257.42 14.074,2259.5 12.665,2262.19C11.255,2264.89 10.55,2268.03 10.55,2271.62C10.55,2275.28 11.265,2278.46 12.695,2281.16C14.124,2283.86 16.097,2285.93 18.614,2287.38C21.131,2288.83 24,2289.56 27.222,2289.56C30.081,2289.56 32.698,2288.92 35.074,2287.65C37.45,2286.39 39.373,2284.54 40.843,2282.13C42.312,2279.71 43.168,2276.87 43.41,2273.61L25.712,2273.61L25.712,2270.41L47.094,2270.41L47.094,2274.15C46.813,2277.78 45.796,2281.04 44.044,2283.94C42.292,2286.84 39.937,2289.12 36.977,2290.8C34.017,2292.47 30.645,2293.3 26.859,2293.3C22.832,2293.3 19.248,2292.39 16.108,2290.55C12.967,2288.72 10.53,2286.15 8.799,2282.85C7.067,2279.55 6.201,2275.8 6.201,2271.62C6.201,2267.43 7.067,2263.68 8.799,2260.38C10.53,2257.08 12.956,2254.51 16.077,2252.68C19.198,2250.85 22.772,2249.93 26.799,2249.93Z" style="fill:rgb(242,239,233);fill-rule:nonzero;"/>
                <path d="M59.115,2266.72C60.081,2264.35 61.631,2262.52 63.766,2261.23C65.9,2259.94 68.497,2259.3 71.558,2259.3L71.558,2263.89L70.168,2263.89C66.987,2263.89 64.35,2264.74 62.256,2266.45C60.162,2268.16 59.115,2270.95 59.115,2274.82L59.115,2292.88L54.826,2292.88L54.826,2259.9L59.115,2259.9L59.115,2266.72Z" style="fill:rgb(242,239,233);fill-rule:nonzero;"/>
                <path d="M91.068,2259.48C94.41,2259.48 97.259,2260.34 99.615,2262.07C101.971,2263.8 103.592,2266.1 104.478,2268.96L104.478,2259.9L108.645,2259.9L108.645,2292.88L104.478,2292.88L104.478,2283.82C103.592,2286.68 101.971,2288.97 99.615,2290.7C97.259,2292.44 94.41,2293.3 91.068,2293.3C88.088,2293.3 85.42,2292.62 83.065,2291.25C80.709,2289.88 78.877,2287.92 77.568,2285.36C76.259,2282.8 75.605,2279.81 75.605,2276.39C75.605,2272.93 76.259,2269.92 77.568,2267.36C78.877,2264.8 80.699,2262.85 83.034,2261.5C85.37,2260.15 88.048,2259.48 91.068,2259.48ZM92.155,2263.22C88.451,2263.22 85.481,2264.4 83.246,2266.76C81.011,2269.11 79.893,2272.32 79.893,2276.39C79.893,2280.46 81.011,2283.67 83.246,2286.02C85.481,2288.38 88.451,2289.56 92.155,2289.56C94.491,2289.56 96.595,2289.01 98.467,2287.93C100.34,2286.84 101.81,2285.3 102.877,2283.3C103.944,2281.31 104.478,2279.01 104.478,2276.39C104.478,2273.77 103.944,2271.47 102.877,2269.47C101.81,2267.48 100.34,2265.94 98.467,2264.85C96.595,2263.76 94.491,2263.22 92.155,2263.22Z" style="fill:rgb(242,239,233);fill-rule:nonzero;"/>
                <path d="M132.384,2259.48C136.572,2259.48 140.045,2260.58 142.803,2262.8C145.562,2265.01 147.243,2267.95 147.847,2271.62L143.438,2271.62C142.995,2269 141.767,2266.94 139.753,2265.43C137.74,2263.92 135.263,2263.16 132.323,2263.16C130.189,2263.16 128.226,2263.64 126.434,2264.61C124.642,2265.58 123.213,2267.06 122.146,2269.05C121.078,2271.04 120.545,2273.49 120.545,2276.39C120.545,2279.29 121.078,2281.74 122.146,2283.73C123.213,2285.72 124.642,2287.2 126.434,2288.17C128.226,2289.13 130.189,2289.62 132.323,2289.62C135.263,2289.62 137.74,2288.86 139.753,2287.35C141.767,2285.84 142.995,2283.78 143.438,2281.16L147.847,2281.16C147.243,2284.83 145.562,2287.76 142.803,2289.98C140.045,2292.2 136.572,2293.3 132.384,2293.3C129.243,2293.3 126.454,2292.63 124.018,2291.28C121.582,2289.93 119.679,2287.98 118.31,2285.42C116.941,2282.86 116.256,2279.85 116.256,2276.39C116.256,2272.93 116.941,2269.92 118.31,2267.36C119.679,2264.8 121.582,2262.85 124.018,2261.5C126.454,2260.15 129.243,2259.48 132.384,2259.48Z" style="fill:rgb(242,239,233);fill-rule:nonzero;"/>
                <path d="M154.491,2250.11C154.491,2249.23 154.783,2248.52 155.367,2248C155.951,2247.48 156.706,2247.21 157.632,2247.21C158.559,2247.21 159.304,2247.48 159.867,2248C160.431,2248.52 160.713,2249.23 160.713,2250.11C160.713,2250.96 160.431,2251.64 159.867,2252.17C159.304,2252.69 158.559,2252.95 157.632,2252.95C156.706,2252.95 155.951,2252.69 155.367,2252.17C154.783,2251.64 154.491,2250.96 154.491,2250.11ZM159.747,2259.9L159.747,2292.88L155.458,2292.88L155.458,2259.9L159.747,2259.9Z" style="fill:rgb(242,239,233);fill-rule:nonzero;"/>
                <path d="M182.821,2259.48C186.163,2259.48 189.012,2260.34 191.368,2262.07C193.723,2263.8 195.344,2266.1 196.23,2268.96L196.23,2259.9L200.398,2259.9L200.398,2292.88L196.23,2292.88L196.23,2283.82C195.344,2286.68 193.723,2288.97 191.368,2290.7C189.012,2292.44 186.163,2293.3 182.821,2293.3C179.841,2293.3 177.173,2292.62 174.817,2291.25C172.461,2289.88 170.629,2287.92 169.321,2285.36C168.012,2282.8 167.357,2279.81 167.357,2276.39C167.357,2272.93 168.012,2269.92 169.321,2267.36C170.629,2264.8 172.451,2262.85 174.787,2261.5C177.123,2260.15 179.8,2259.48 182.821,2259.48ZM183.908,2263.22C180.203,2263.22 177.233,2264.4 174.998,2266.76C172.764,2269.11 171.646,2272.32 171.646,2276.39C171.646,2280.46 172.764,2283.67 174.998,2286.02C177.233,2288.38 180.203,2289.56 183.908,2289.56C186.244,2289.56 188.348,2289.01 190.22,2287.93C192.093,2286.84 193.562,2285.3 194.629,2283.3C195.697,2281.31 196.23,2279.01 196.23,2276.39C196.23,2273.77 195.697,2271.47 194.629,2269.47C193.562,2267.48 192.093,2265.94 190.22,2264.85C188.348,2263.76 186.244,2263.22 183.908,2263.22Z" style="fill:rgb(242,239,233);fill-rule:nonzero;"/>
                <path d="M219.546,2259.48C223.13,2259.48 226.009,2260.42 228.184,2262.32C230.358,2264.21 231.687,2266.76 232.17,2269.99L228.123,2269.99C227.882,2267.85 227.006,2266.09 225.496,2264.7C223.986,2263.31 221.962,2262.62 219.425,2262.62C217.251,2262.62 215.549,2263.15 214.321,2264.22C213.093,2265.28 212.479,2266.7 212.479,2268.48C212.479,2269.8 212.871,2270.87 213.657,2271.68C214.442,2272.48 215.418,2273.1 216.586,2273.52C217.754,2273.94 219.324,2274.38 221.298,2274.82C223.714,2275.38 225.657,2275.96 227.126,2276.54C228.596,2277.12 229.855,2278.04 230.902,2279.29C231.949,2280.54 232.472,2282.23 232.472,2284.36C232.472,2286.98 231.496,2289.12 229.543,2290.8C227.59,2292.47 225.002,2293.3 221.781,2293.3C217.996,2293.3 214.895,2292.37 212.479,2290.49C210.063,2288.62 208.633,2286.05 208.19,2282.79L212.297,2282.79C212.539,2284.97 213.485,2286.74 215.136,2288.11C216.787,2289.48 219.022,2290.16 221.841,2290.16C223.935,2290.16 225.566,2289.62 226.734,2288.53C227.902,2287.44 228.486,2286.03 228.486,2284.3C228.486,2282.89 228.083,2281.76 227.277,2280.92C226.472,2280.07 225.475,2279.44 224.288,2279.02C223.1,2278.59 221.479,2278.14 219.425,2277.66C217.049,2277.09 215.146,2276.53 213.717,2275.97C212.287,2275.4 211.069,2274.53 210.063,2273.34C209.056,2272.15 208.552,2270.53 208.552,2268.48C208.552,2265.78 209.539,2263.6 211.512,2261.95C213.485,2260.3 216.163,2259.48 219.546,2259.48Z" style="fill:rgb(242,239,233);fill-rule:nonzero;"/>
                <path d="M273.546,2259.48C276.567,2259.48 279.234,2260.15 281.55,2261.5C283.865,2262.85 285.677,2264.8 286.986,2267.36C288.295,2269.92 288.949,2272.93 288.949,2276.39C288.949,2279.81 288.295,2282.8 286.986,2285.36C285.677,2287.92 283.855,2289.88 281.52,2291.25C279.184,2292.62 276.526,2293.3 273.546,2293.3C270.164,2293.3 267.305,2292.44 264.969,2290.7C262.634,2288.97 261.023,2286.68 260.137,2283.82L260.137,2308.46L255.909,2308.46L255.909,2259.9L260.137,2259.9L260.137,2268.96C261.023,2266.1 262.634,2263.8 264.969,2262.07C267.305,2260.34 270.164,2259.48 273.546,2259.48ZM272.399,2263.22C270.063,2263.22 267.959,2263.76 266.087,2264.85C264.214,2265.94 262.754,2267.48 261.707,2269.47C260.66,2271.47 260.137,2273.77 260.137,2276.39C260.137,2279.01 260.66,2281.31 261.707,2283.3C262.754,2285.3 264.214,2286.84 266.087,2287.93C267.959,2289.01 270.063,2289.56 272.399,2289.56C276.144,2289.56 279.124,2288.38 281.338,2286.02C283.553,2283.67 284.661,2280.46 284.661,2276.39C284.661,2272.32 283.553,2269.11 281.338,2266.76C279.124,2264.4 276.144,2263.22 272.399,2263.22Z" style="fill:rgb(242,239,233);fill-rule:nonzero;"/>
                <path d="M311.48,2259.48C314.621,2259.48 317.429,2260.15 319.906,2261.5C322.382,2262.85 324.325,2264.8 325.735,2267.36C327.144,2269.92 327.849,2272.93 327.849,2276.39C327.849,2279.85 327.144,2282.85 325.735,2285.39C324.325,2287.93 322.382,2289.88 319.906,2291.25C317.429,2292.62 314.621,2293.3 311.48,2293.3C308.339,2293.3 305.52,2292.62 303.023,2291.25C300.527,2289.88 298.563,2287.92 297.134,2285.36C295.704,2282.8 294.99,2279.81 294.99,2276.39C294.99,2272.93 295.704,2269.92 297.134,2267.36C298.563,2264.8 300.527,2262.85 303.023,2261.5C305.52,2260.15 308.339,2259.48 311.48,2259.48ZM311.48,2263.16C309.305,2263.16 307.292,2263.64 305.439,2264.61C303.587,2265.58 302.097,2267.06 300.97,2269.05C299.842,2271.04 299.278,2273.49 299.278,2276.39C299.278,2279.29 299.842,2281.72 300.97,2283.7C302.097,2285.67 303.587,2287.14 305.439,2288.11C307.292,2289.07 309.305,2289.56 311.48,2289.56C313.614,2289.56 315.597,2289.07 317.429,2288.11C319.262,2287.14 320.742,2285.67 321.869,2283.7C322.997,2281.72 323.56,2279.29 323.56,2276.39C323.56,2273.49 322.997,2271.04 321.869,2269.05C320.742,2267.06 319.262,2265.58 317.429,2264.61C315.597,2263.64 313.614,2263.16 311.48,2263.16Z" style="fill:rgb(242,239,233);fill-rule:nonzero;"/>
                <path d="M339.748,2266.72C340.715,2264.35 342.265,2262.52 344.4,2261.23C346.534,2259.94 349.131,2259.3 352.192,2259.3L352.192,2263.89L350.802,2263.89C347.621,2263.89 344.983,2264.74 342.889,2266.45C340.795,2268.16 339.748,2270.95 339.748,2274.82L339.748,2292.88L335.46,2292.88L335.46,2259.9L339.748,2259.9L339.748,2266.72Z" style="fill:rgb(242,239,233);fill-rule:nonzero;"/>
                <path d="M388.494,2289.13L388.494,2292.88L384.568,2292.88C381.386,2292.88 379.011,2292.12 377.44,2290.61C375.87,2289.1 375.084,2286.56 375.084,2282.97L375.084,2263.58L370.071,2263.58L370.071,2259.9L375.084,2259.9L375.084,2251.56L379.373,2251.56L379.373,2259.9L388.434,2259.9L388.434,2263.58L379.373,2263.58L379.373,2283.03C379.373,2285.37 379.796,2286.97 380.641,2287.84C381.487,2288.7 382.977,2289.13 385.111,2289.13L388.494,2289.13Z" style="fill:rgb(242,239,233);fill-rule:nonzero;"/>
                <path d="M423.89,2259.9L423.89,2292.88L419.662,2292.88L419.662,2284.72C418.816,2287.58 417.286,2289.76 415.071,2291.25C412.857,2292.74 410.32,2293.48 407.461,2293.48C403.595,2293.48 400.464,2292.26 398.068,2289.83C395.672,2287.39 394.474,2283.82 394.474,2279.11L394.474,2259.9L398.702,2259.9L398.702,2278.74C398.702,2282.37 399.608,2285.14 401.42,2287.05C403.232,2288.96 405.709,2289.92 408.85,2289.92C412.152,2289.92 414.779,2288.86 416.732,2286.75C418.686,2284.63 419.662,2281.52 419.662,2277.42L419.662,2259.9L423.89,2259.9Z" style="fill:rgb(242,239,233);fill-rule:nonzero;"/>
                <path d="M487.857,2258.81C492.005,2258.81 495.267,2260.09 497.643,2262.65C500.019,2265.2 501.206,2268.76 501.206,2273.31L501.206,2292.88L490.938,2292.88L490.938,2274.52C490.938,2272.38 490.364,2270.72 489.216,2269.53C488.069,2268.35 486.508,2267.75 484.535,2267.75C482.481,2267.75 480.861,2268.39 479.673,2269.65C478.485,2270.92 477.891,2272.7 477.891,2275L477.891,2292.88L467.562,2292.88L467.562,2274.52C467.562,2272.38 466.998,2270.72 465.871,2269.53C464.743,2268.35 463.193,2267.75 461.22,2267.75C459.166,2267.75 457.535,2268.38 456.327,2269.62C455.119,2270.87 454.515,2272.66 454.515,2275L454.515,2292.88L444.186,2292.88L444.186,2259.17L454.515,2259.17L454.515,2264.91C455.401,2263.02 456.76,2261.53 458.592,2260.44C460.424,2259.36 462.569,2258.81 465.025,2258.81C467.602,2258.81 469.877,2259.41 471.85,2260.59C473.824,2261.78 475.314,2263.48 476.32,2265.7C477.488,2263.6 479.089,2261.93 481.122,2260.68C483.156,2259.44 485.401,2258.81 487.857,2258.81Z" style="fill:rgb(253,199,56);fill-rule:nonzero;"/>
                <path d="M540.106,2275.12C540.106,2275.97 540.006,2276.89 539.804,2277.9L516.428,2277.9C516.549,2280.44 517.193,2282.26 518.361,2283.37C519.529,2284.47 521.019,2285.03 522.831,2285.03C524.361,2285.03 525.63,2284.64 526.636,2283.88C527.643,2283.11 528.307,2282.13 528.63,2280.92L539.563,2280.92C539.12,2283.3 538.153,2285.42 536.663,2287.29C535.173,2289.16 533.281,2290.63 530.985,2291.7C528.69,2292.77 526.133,2293.3 523.314,2293.3C520.012,2293.3 517.082,2292.61 514.525,2291.22C511.968,2289.83 509.965,2287.83 508.515,2285.21C507.066,2282.59 506.341,2279.53 506.341,2276.03C506.341,2272.48 507.056,2269.41 508.485,2266.82C509.915,2264.22 511.918,2262.22 514.495,2260.84C517.072,2259.45 520.012,2258.75 523.314,2258.75C526.656,2258.75 529.596,2259.44 532.133,2260.8C534.67,2262.17 536.633,2264.1 538.022,2266.57C539.412,2269.05 540.106,2271.9 540.106,2275.12ZM529.656,2273.55C529.697,2271.34 529.103,2269.67 527.875,2268.57C526.646,2267.46 525.126,2266.91 523.314,2266.91C521.421,2266.91 519.851,2267.47 518.603,2268.6C517.354,2269.72 516.65,2271.38 516.489,2273.55L529.656,2273.55Z" style="fill:rgb(253,199,56);fill-rule:nonzero;"/>
                <path d="M566.865,2258.81C570.731,2258.81 573.801,2260.1 576.076,2262.68C578.352,2265.26 579.489,2268.8 579.489,2273.31L579.489,2292.88L569.16,2292.88L569.16,2274.52C569.16,2272.26 568.566,2270.5 567.378,2269.23C566.19,2267.96 564.61,2267.33 562.637,2267.33C560.543,2267.33 558.882,2267.99 557.653,2269.32C556.425,2270.65 555.811,2272.54 555.811,2275L555.811,2292.88L545.482,2292.88L545.482,2259.17L555.811,2259.17L555.811,2265.34C556.778,2263.32 558.217,2261.73 560.13,2260.56C562.043,2259.4 564.288,2258.81 566.865,2258.81Z" style="fill:rgb(253,199,56);fill-rule:nonzero;"/>
                <path d="M598.577,2258.75C602.845,2258.75 606.258,2259.82 608.815,2261.95C611.372,2264.09 612.973,2266.91 613.617,2270.41L603.953,2270.41C603.671,2269.04 603.036,2267.96 602.05,2267.18C601.063,2266.39 599.825,2266 598.335,2266C597.167,2266 596.281,2266.25 595.677,2266.76C595.073,2267.26 594.771,2267.97 594.771,2268.9C594.771,2269.95 595.325,2270.73 596.432,2271.26C597.54,2271.78 599.281,2272.3 601.657,2272.83C604.234,2273.43 606.349,2274.04 608,2274.67C609.651,2275.29 611.08,2276.31 612.288,2277.72C613.496,2279.13 614.1,2281.02 614.1,2283.4C614.1,2285.33 613.577,2287.04 612.53,2288.53C611.483,2290.02 609.973,2291.19 608,2292.03C606.026,2292.88 603.691,2293.3 600.993,2293.3C596.442,2293.3 592.798,2292.3 590.06,2290.28C587.321,2288.27 585.65,2285.39 585.046,2281.64L595.013,2281.64C595.174,2283.09 595.788,2284.2 596.855,2284.97C597.922,2285.73 599.301,2286.11 600.993,2286.11C602.161,2286.11 603.046,2285.84 603.651,2285.3C604.255,2284.76 604.557,2284.04 604.557,2283.15C604.557,2281.99 604.003,2281.15 602.895,2280.65C601.788,2280.14 599.986,2279.61 597.489,2279.05C594.993,2278.52 592.939,2277.96 591.328,2277.36C589.717,2276.75 588.328,2275.78 587.16,2274.43C585.993,2273.08 585.409,2271.24 585.409,2268.9C585.409,2265.88 586.556,2263.43 588.852,2261.56C591.147,2259.69 594.389,2258.75 598.577,2258.75Z" style="fill:rgb(253,199,56);fill-rule:nonzero;"/>
                <path d="M632.644,2258.75C635.221,2258.75 637.436,2259.34 639.288,2260.5C641.141,2261.67 642.51,2263.26 643.396,2265.28L643.396,2259.17L653.664,2259.17L653.664,2292.88L643.396,2292.88L643.396,2286.78C642.51,2288.79 641.141,2290.38 639.288,2291.55C637.436,2292.72 635.221,2293.3 632.644,2293.3C629.866,2293.3 627.379,2292.61 625.184,2291.22C622.99,2289.83 621.258,2287.83 619.99,2285.21C618.721,2282.59 618.087,2279.53 618.087,2276.03C618.087,2272.48 618.721,2269.41 619.99,2266.82C621.258,2264.22 622.99,2262.22 625.184,2260.84C627.379,2259.45 629.866,2258.75 632.644,2258.75ZM635.966,2267.81C633.751,2267.81 631.97,2268.54 630.621,2269.99C629.272,2271.44 628.597,2273.45 628.597,2276.03C628.597,2278.6 629.272,2280.62 630.621,2282.07C631.97,2283.52 633.751,2284.24 635.966,2284.24C638.141,2284.24 639.923,2283.5 641.312,2282.01C642.701,2280.52 643.396,2278.52 643.396,2276.03C643.396,2273.49 642.701,2271.49 641.312,2270.02C639.923,2268.55 638.141,2267.81 635.966,2267.81Z" style="fill:rgb(253,199,56);fill-rule:nonzero;"/>
                <path d="M666.047,2255.07C664.195,2255.07 662.705,2254.55 661.577,2253.53C660.45,2252.5 659.886,2251.22 659.886,2249.69C659.886,2248.12 660.45,2246.82 661.577,2245.8C662.705,2244.77 664.195,2244.25 666.047,2244.25C667.899,2244.25 669.389,2244.77 670.517,2245.8C671.645,2246.82 672.208,2248.12 672.208,2249.69C672.208,2251.22 671.645,2252.5 670.517,2253.53C669.389,2254.55 667.899,2255.07 666.047,2255.07ZM655.295,2300.07L657.832,2300.07C658.92,2300.07 659.705,2299.84 660.188,2299.37C660.671,2298.91 660.913,2298.13 660.913,2297.05L660.913,2259.17L671.302,2259.17L671.302,2296.93C671.302,2304.94 667.275,2308.95 659.222,2308.95L655.295,2308.95L655.295,2300.07Z" style="fill:rgb(253,199,56);fill-rule:nonzero;"/>
                <path d="M710.323,2275.12C710.323,2275.97 710.222,2276.89 710.021,2277.9L686.645,2277.9C686.765,2280.44 687.41,2282.26 688.578,2283.37C689.745,2284.47 691.235,2285.03 693.047,2285.03C694.578,2285.03 695.846,2284.64 696.853,2283.88C697.86,2283.11 698.524,2282.13 698.846,2280.92L709.779,2280.92C709.336,2283.3 708.37,2285.42 706.88,2287.29C705.39,2289.16 703.497,2290.63 701.202,2291.7C698.907,2292.77 696.349,2293.3 693.531,2293.3C690.229,2293.3 687.299,2292.61 684.742,2291.22C682.185,2289.83 680.182,2287.83 678.732,2285.21C677.282,2282.59 676.557,2279.53 676.557,2276.03C676.557,2272.48 677.272,2269.41 678.702,2266.82C680.131,2264.22 682.135,2262.22 684.712,2260.84C687.289,2259.45 690.229,2258.75 693.531,2258.75C696.873,2258.75 699.813,2259.44 702.35,2260.8C704.886,2262.17 706.85,2264.1 708.239,2266.57C709.628,2269.05 710.323,2271.9 710.323,2275.12ZM699.873,2273.55C699.913,2271.34 699.319,2269.67 698.091,2268.57C696.863,2267.46 695.343,2266.91 693.531,2266.91C691.638,2266.91 690.068,2267.47 688.819,2268.6C687.571,2269.72 686.866,2271.38 686.705,2273.55L699.873,2273.55Z" style="fill:rgb(253,199,56);fill-rule:nonzero;"/>
                <path d="M740.585,2258.75C743.162,2258.75 745.377,2259.34 747.229,2260.5C749.082,2261.67 750.431,2263.26 751.276,2265.28L751.276,2248.18L761.605,2248.18L761.605,2292.88L751.276,2292.88L751.276,2286.78C750.431,2288.79 749.082,2290.38 747.229,2291.55C745.377,2292.72 743.162,2293.3 740.585,2293.3C737.806,2293.3 735.32,2292.61 733.125,2291.22C730.93,2289.83 729.199,2287.83 727.93,2285.21C726.662,2282.59 726.028,2279.53 726.028,2276.03C726.028,2272.48 726.662,2269.41 727.93,2266.82C729.199,2264.22 730.93,2262.22 733.125,2260.84C735.32,2259.45 737.806,2258.75 740.585,2258.75ZM743.907,2267.81C741.692,2267.81 739.91,2268.54 738.561,2269.99C737.212,2271.44 736.538,2273.45 736.538,2276.03C736.538,2278.6 737.212,2280.62 738.561,2282.07C739.91,2283.52 741.692,2284.24 743.907,2284.24C746.082,2284.24 747.863,2283.5 749.253,2282.01C750.642,2280.52 751.337,2278.52 751.337,2276.03C751.337,2273.49 750.642,2271.49 749.253,2270.02C747.863,2268.55 746.082,2267.81 743.907,2267.81Z" style="fill:rgb(253,199,56);fill-rule:nonzero;"/>
                <path d="M800.747,2275.12C800.747,2275.97 800.646,2276.89 800.444,2277.9L777.068,2277.9C777.189,2280.44 777.834,2282.26 779.001,2283.37C780.169,2284.47 781.659,2285.03 783.471,2285.03C785.001,2285.03 786.27,2284.64 787.277,2283.88C788.283,2283.11 788.948,2282.13 789.27,2280.92L800.203,2280.92C799.76,2283.3 798.793,2285.42 797.304,2287.29C795.814,2289.16 793.921,2290.63 791.626,2291.7C789.33,2292.77 786.773,2293.3 783.954,2293.3C780.652,2293.3 777.723,2292.61 775.166,2291.22C772.609,2289.83 770.605,2287.83 769.156,2285.21C767.706,2282.59 766.981,2279.53 766.981,2276.03C766.981,2272.48 767.696,2269.41 769.125,2266.82C770.555,2264.22 772.558,2262.22 775.136,2260.84C777.713,2259.45 780.652,2258.75 783.954,2258.75C787.297,2258.75 790.236,2259.44 792.773,2260.8C795.31,2262.17 797.273,2264.1 798.663,2266.57C800.052,2269.05 800.747,2271.9 800.747,2275.12ZM790.297,2273.55C790.337,2271.34 789.743,2269.67 788.515,2268.57C787.287,2267.46 785.766,2266.91 783.954,2266.91C782.062,2266.91 780.491,2267.47 779.243,2268.6C777.995,2269.72 777.29,2271.38 777.129,2273.55L790.297,2273.55Z" style="fill:rgb(253,199,56);fill-rule:nonzero;"/>
                <path d="M831.009,2258.75C833.586,2258.75 835.801,2259.34 837.653,2260.5C839.505,2261.67 840.874,2263.26 841.76,2265.28L841.76,2259.17L852.029,2259.17L852.029,2292.7C852.029,2295.84 851.425,2298.67 850.217,2301.18C849.009,2303.7 847.156,2305.7 844.66,2307.2C842.163,2308.68 839.062,2309.43 835.358,2309.43C830.284,2309.43 826.227,2308.23 823.186,2305.84C820.146,2303.44 818.324,2300.19 817.72,2296.08L827.928,2296.08C828.25,2297.45 828.985,2298.52 830.133,2299.28C831.28,2300.05 832.78,2300.43 834.633,2300.43C836.767,2300.43 838.489,2299.82 839.797,2298.59C841.106,2297.36 841.76,2295.4 841.76,2292.7L841.76,2286.78C840.874,2288.79 839.505,2290.38 837.653,2291.55C835.801,2292.72 833.586,2293.3 831.009,2293.3C828.23,2293.3 825.743,2292.61 823.549,2291.22C821.354,2289.83 819.623,2287.83 818.354,2285.21C817.086,2282.59 816.451,2279.53 816.451,2276.03C816.451,2272.48 817.086,2269.41 818.354,2266.82C819.623,2264.22 821.354,2262.22 823.549,2260.84C825.743,2259.45 828.23,2258.75 831.009,2258.75ZM834.331,2267.81C832.116,2267.81 830.334,2268.54 828.985,2269.99C827.636,2271.44 826.962,2273.45 826.962,2276.03C826.962,2278.6 827.636,2280.62 828.985,2282.07C830.334,2283.52 832.116,2284.24 834.331,2284.24C836.505,2284.24 838.287,2283.5 839.676,2282.01C841.066,2280.52 841.76,2278.52 841.76,2276.03C841.76,2273.49 841.066,2271.49 839.676,2270.02C838.287,2268.55 836.505,2267.81 834.331,2267.81Z" style="fill:rgb(253,199,56);fill-rule:nonzero;"/>
                <path d="M869.485,2265.52C870.774,2263.46 872.435,2261.83 874.469,2260.62C876.502,2259.42 878.707,2258.81 881.083,2258.81L881.083,2269.87L878.123,2269.87C875.385,2269.87 873.261,2270.45 871.751,2271.62C870.241,2272.78 869.485,2274.76 869.485,2277.54L869.485,2292.88L859.157,2292.88L859.157,2259.17L869.485,2259.17L869.485,2265.52Z" style="fill:rgb(253,199,56);fill-rule:nonzero;"/>
                <path d="M898.237,2258.75C900.815,2258.75 903.029,2259.34 904.882,2260.5C906.734,2261.67 908.103,2263.26 908.989,2265.28L908.989,2259.17L919.258,2259.17L919.258,2292.88L908.989,2292.88L908.989,2286.78C908.103,2288.79 906.734,2290.38 904.882,2291.55C903.029,2292.72 900.815,2293.3 898.237,2293.3C895.459,2293.3 892.972,2292.61 890.778,2291.22C888.583,2289.83 886.851,2287.83 885.583,2285.21C884.314,2282.59 883.68,2279.53 883.68,2276.03C883.68,2272.48 884.314,2269.41 885.583,2266.82C886.851,2264.22 888.583,2262.22 890.778,2260.84C892.972,2259.45 895.459,2258.75 898.237,2258.75ZM901.56,2267.81C899.345,2267.81 897.563,2268.54 896.214,2269.99C894.865,2271.44 894.19,2273.45 894.19,2276.03C894.19,2278.6 894.865,2280.62 896.214,2282.07C897.563,2283.52 899.345,2284.24 901.56,2284.24C903.734,2284.24 905.516,2283.5 906.905,2282.01C908.295,2280.52 908.989,2278.52 908.989,2276.03C908.989,2273.49 908.295,2271.49 906.905,2270.02C905.516,2268.55 903.734,2267.81 901.56,2267.81Z" style="fill:rgb(253,199,56);fill-rule:nonzero;"/>
                <path d="M945.473,2284L945.473,2292.88L940.822,2292.88C936.875,2292.88 933.805,2291.9 931.61,2289.95C929.416,2288 928.318,2284.76 928.318,2280.26L928.318,2267.87L923.788,2267.87L923.788,2259.17L928.318,2259.17L928.318,2250.9L938.647,2250.9L938.647,2259.17L945.412,2259.17L945.412,2267.87L938.647,2267.87L938.647,2280.44C938.647,2281.76 938.919,2282.69 939.463,2283.22C940.006,2283.74 940.922,2284 942.211,2284L945.473,2284Z" style="fill:rgb(253,199,56);fill-rule:nonzero;"/>
                <path d="M950.305,2249.69C950.305,2248.12 950.869,2246.82 951.996,2245.8C953.124,2244.77 954.614,2244.25 956.466,2244.25C958.319,2244.25 959.809,2244.77 960.936,2245.8C962.064,2246.82 962.627,2248.12 962.627,2249.69C962.627,2251.22 962.064,2252.5 960.936,2253.53C959.809,2254.55 958.319,2255.07 956.466,2255.07C954.614,2255.07 953.124,2254.55 951.996,2253.53C950.869,2252.5 950.305,2251.22 950.305,2249.69ZM961.601,2259.17L961.601,2292.88L951.272,2292.88L951.272,2259.17L961.601,2259.17Z" style="fill:rgb(253,199,56);fill-rule:nonzero;"/>
                <path d="M987.816,2284L987.816,2292.88L983.165,2292.88C979.218,2292.88 976.148,2291.9 973.953,2289.95C971.758,2288 970.661,2284.76 970.661,2280.26L970.661,2267.87L966.131,2267.87L966.131,2259.17L970.661,2259.17L970.661,2250.9L980.99,2250.9L980.99,2259.17L987.755,2259.17L987.755,2267.87L980.99,2267.87L980.99,2280.44C980.99,2281.76 981.262,2282.69 981.805,2283.22C982.349,2283.74 983.265,2284 984.554,2284L987.816,2284Z" style="fill:rgb(253,199,56);fill-rule:nonzero;"/>
                <path d="M1027.14,2259.17L1027.14,2292.88L1016.75,2292.88L1016.75,2286.78C1015.78,2288.75 1014.34,2290.32 1012.43,2291.49C1010.52,2292.66 1008.29,2293.24 1005.75,2293.24C1001.89,2293.24 998.819,2291.95 996.544,2289.38C994.269,2286.8 993.131,2283.26 993.131,2278.74L993.131,2259.17L1003.4,2259.17L1003.4,2277.48C1003.4,2279.77 1003.99,2281.55 1005.18,2282.82C1006.37,2284.09 1007.97,2284.72 1009.98,2284.72C1012.08,2284.72 1013.73,2284.06 1014.94,2282.73C1016.14,2281.4 1016.75,2279.51 1016.75,2277.05L1016.75,2259.17L1027.14,2259.17Z" style="fill:rgb(253,199,56);fill-rule:nonzero;"/>
                <path d="M1047.07,2258.75C1049.65,2258.75 1051.86,2259.34 1053.72,2260.5C1055.57,2261.67 1056.92,2263.26 1057.76,2265.28L1057.76,2248.18L1068.09,2248.18L1068.09,2292.88L1057.76,2292.88L1057.76,2286.78C1056.92,2288.79 1055.57,2290.38 1053.72,2291.55C1051.86,2292.72 1049.65,2293.3 1047.07,2293.3C1044.29,2293.3 1041.81,2292.61 1039.61,2291.22C1037.42,2289.83 1035.68,2287.83 1034.42,2285.21C1033.15,2282.59 1032.51,2279.53 1032.51,2276.03C1032.51,2272.48 1033.15,2269.41 1034.42,2266.82C1035.68,2264.22 1037.42,2262.22 1039.61,2260.84C1041.81,2259.45 1044.29,2258.75 1047.07,2258.75ZM1050.39,2267.81C1048.18,2267.81 1046.4,2268.54 1045.05,2269.99C1043.7,2271.44 1043.02,2273.45 1043.02,2276.03C1043.02,2278.6 1043.7,2280.62 1045.05,2282.07C1046.4,2283.52 1048.18,2284.24 1050.39,2284.24C1052.57,2284.24 1054.35,2283.5 1055.74,2282.01C1057.13,2280.52 1057.82,2278.52 1057.82,2276.03C1057.82,2273.49 1057.13,2271.49 1055.74,2270.02C1054.35,2268.55 1052.57,2267.81 1050.39,2267.81Z" style="fill:rgb(253,199,56);fill-rule:nonzero;"/>
            </g>
        </g>
    </g>
</svg>
