<?xml version="1.0" encoding="UTF-8" standalone="no"?>
<!DOCTYPE svg PUBLIC "-//W3C//DTD SVG 1.1//EN" "http://www.w3.org/Graphics/SVG/1.1/DTD/svg11.dtd">
<svg width="100%" height="100%" viewBox="0 0 494 260" version="1.1" xmlns="http://www.w3.org/2000/svg" xmlns:xlink="http://www.w3.org/1999/xlink" xml:space="preserve" xmlns:serif="http://www.serif.com/" style="fill-rule:evenodd;clip-rule:evenodd;stroke-linejoin:round;stroke-miterlimit:2;">
    <g transform="matrix(1,0,0,1,0,-597)">
        <g id="Artboard2" transform="matrix(0.959871,0,0,0.972006,0,16.1249)">
            <rect x="0" y="597.605" width="514.653" height="267.488" style="fill:none;"/>
            <g transform="matrix(0.254913,0,0,0.25173,0.240123,447.587)">
                <g transform="matrix(8.33333,0,0,8.33333,140.001,719.427)">
                    <path d="M0,4.534L0,1.04L11.19,1.04L11.19,15.891C8.195,17.278 4.839,17.971 1.124,17.971C-3.979,17.971 -7.841,16.612 -10.462,13.894C-13.083,11.176 -14.393,7.183 -14.393,1.913C-14.393,-1.331 -13.749,-4.098 -12.458,-6.386C-11.169,-8.674 -9.312,-10.421 -6.884,-11.627C-4.458,-12.834 -1.525,-13.437 1.914,-13.437C3.189,-13.437 4.458,-13.326 5.72,-13.104C6.981,-12.882 8.167,-12.549 9.277,-12.106L9.277,-6.614C7.862,-7.058 6.6,-7.37 5.491,-7.55C4.382,-7.731 3.272,-7.821 2.163,-7.821C-1.026,-7.821 -3.473,-6.982 -5.179,-5.304C-6.884,-3.626 -7.737,-1.22 -7.737,1.913C-7.737,5.408 -6.996,8.022 -5.512,9.755C-4.028,11.488 -1.761,12.355 1.29,12.355C2.593,12.355 3.869,12.271 5.117,12.105L5.117,6.24L0,4.534Z" style="fill:white;fill-rule:nonzero;"/>
                </g>
                <g transform="matrix(8.33333,0,0,8.33333,352.846,679.903)">
                    <path d="M0,22.131L-6.323,22.131L-6.323,0.125L-2.205,0.125L-1.331,3.37C-0.61,2.316 0.292,1.491 1.373,0.895C2.455,0.299 3.703,0 5.117,0C5.727,0 6.254,0.042 6.698,0.125L6.698,5.824L5.367,5.824C3.952,5.824 2.773,6.192 1.831,6.927C0.888,7.662 0.277,8.639 0,9.859L0,22.131Z" style="fill:white;fill-rule:nonzero;"/>
                </g>
                <g transform="matrix(8.33333,0,0,8.33333,533.8,715.259)">
                    <path d="M0,13.77C0.915,13.77 1.761,13.535 2.538,13.063C3.313,12.592 3.952,11.954 4.451,11.149L4.451,7.572L1.498,7.572C0.055,7.572 -1.061,7.849 -1.851,8.404C-2.642,8.959 -3.037,9.749 -3.037,10.775C-3.037,12.772 -2.025,13.77 0,13.77M6.157,17.888L5.325,14.81C4.576,15.92 3.598,16.793 2.392,17.431C1.186,18.068 -0.153,18.387 -1.623,18.387C-3.897,18.387 -5.693,17.764 -7.01,16.515C-8.327,15.268 -8.985,13.548 -8.985,11.357C-8.985,9.056 -8.112,7.239 -6.365,5.908C-4.618,4.577 -2.261,3.911 0.707,3.911L4.326,3.911L4.326,3.121C4.326,1.901 4.021,1.11 3.411,0.749C2.801,0.389 1.844,0.209 0.541,0.209C-1.789,0.209 -4.299,0.736 -6.989,1.79L-6.989,-2.994C-5.88,-3.466 -4.583,-3.854 -3.099,-4.159C-1.616,-4.464 -0.111,-4.617 1.414,-4.617C4.298,-4.617 6.496,-3.958 8.008,-2.641C9.519,-1.323 10.275,0.569 10.275,3.037L10.275,17.888L6.157,17.888Z" style="fill:white;fill-rule:nonzero;"/>
                </g>
                <g transform="matrix(8.33333,0,0,8.33333,700.54,693.77)">
                    <path d="M0,12.896L0,3.203L-3.869,3.203L-3.869,0.042L0.291,-1.664L2.163,-7.862L6.323,-7.862L6.323,-1.539L11.024,-1.539L11.024,3.203L6.323,3.203L6.323,12.563C6.323,13.645 6.593,14.414 7.134,14.872C7.675,15.33 8.458,15.558 9.485,15.558C9.762,15.558 10.067,15.552 10.4,15.538C10.732,15.524 11.024,15.503 11.273,15.475L11.273,20.509C10.608,20.619 10.004,20.689 9.464,20.717C8.923,20.744 8.32,20.758 7.654,20.758C5.13,20.758 3.224,20.121 1.935,18.845C0.645,17.569 0,15.586 0,12.896" style="fill:white;fill-rule:nonzero;"/>
                </g>
                <g transform="matrix(8.33333,0,0,8.33333,-731.041,-7408.54)">
                    <path d="M190.051,962.002L197.04,962.002L197.04,966.869L190.051,966.869L190.051,962.002ZM190.717,992.744L190.717,975.189L188.429,973.275L188.429,970.738L197.04,970.738L197.04,992.744L190.717,992.744Z" style="fill:white;fill-rule:nonzero;"/>
                </g>
                <g transform="matrix(8.33333,0,0,8.33333,993.806,693.77)">
                    <path d="M0,12.896L0,3.203L-3.869,3.203L-3.869,0.042L0.291,-1.664L2.163,-7.862L6.323,-7.862L6.323,-1.539L11.024,-1.539L11.024,3.203L6.323,3.203L6.323,12.563C6.323,13.645 6.593,14.414 7.134,14.872C7.675,15.33 8.458,15.558 9.485,15.558C9.762,15.558 10.067,15.552 10.4,15.538C10.732,15.524 11.024,15.503 11.273,15.475L11.273,20.509C10.608,20.619 10.004,20.689 9.464,20.717C8.923,20.744 8.32,20.758 7.654,20.758C5.13,20.758 3.224,20.121 1.935,18.845C0.645,17.569 0,15.586 0,12.896" style="fill:white;fill-rule:nonzero;"/>
                </g>
                <g transform="matrix(8.33333,0,0,8.33333,1147.37,755.818)">
                    <path d="M0,4.535L0,-8.985L6.323,-8.985L6.323,4.327C6.323,7.017 7.376,8.362 9.484,8.362C10.427,8.362 11.294,8.064 12.084,7.468C12.875,6.872 13.492,6.061 13.936,5.034L13.936,-8.985L20.259,-8.985L20.259,13.021L16.14,13.021L15.267,9.652C13.242,12.231 10.677,13.52 7.571,13.52C5.13,13.52 3.258,12.744 1.955,11.191C0.651,9.638 0,7.42 0,4.535" style="fill:white;fill-rule:nonzero;"/>
                </g>
                <g transform="matrix(8.33333,0,0,8.33333,1512.05,677.126)">
                    <path d="M0,14.186L-0.25,14.852C-0.139,14.63 -0.056,14.408 0,14.186M-9.443,11.441C-9.443,13.66 -9.069,15.365 -8.32,16.557C-7.571,17.75 -6.518,18.346 -5.159,18.346C-4.299,18.346 -3.488,18.131 -2.725,17.701C-1.962,17.271 -1.332,16.696 -0.832,15.975L-0.832,6.573C-1.942,5.242 -3.37,4.577 -5.117,4.577C-6.504,4.577 -7.571,5.166 -8.32,6.345C-9.069,7.524 -9.443,9.222 -9.443,11.441M1.29,22.464L0.416,19.219C-1.359,21.715 -3.661,22.963 -6.49,22.963C-9.375,22.963 -11.648,21.944 -13.312,19.906C-14.976,17.868 -15.808,15.06 -15.808,11.482C-15.808,7.849 -14.997,5.021 -13.375,2.996C-11.752,0.972 -9.471,-0.041 -6.531,-0.041C-4.341,-0.041 -2.469,0.694 -0.916,2.164L-0.916,-8.777L5.408,-8.777L5.408,22.464L1.29,22.464Z" style="fill:white;fill-rule:nonzero;"/>
                </g>
                <g transform="matrix(8.33333,0,0,8.33333,47.793,1162.73)">
                    <path d="M0,-21.008L0.957,-25.875L8.07,-25.875L7.113,-21.008L0,-21.008ZM-4.243,4.867L-0.832,-12.688L-2.829,-14.602L-2.372,-17.139L6.364,-17.139L2.08,4.867L-4.243,4.867Z" style="fill:rgb(251,201,67);fill-rule:nonzero;"/>
                </g>
                <g transform="matrix(8.33333,0,0,8.33333,136.88,1015.74)">
                    <path d="M0,22.505L4.285,0.499L8.403,0.499L8.777,3.869C9.914,2.621 11.19,1.664 12.604,0.998C14.019,0.333 15.447,0 16.889,0C18.886,0 20.397,0.589 21.423,1.768C22.449,2.947 22.962,4.437 22.962,6.24C22.962,6.629 22.935,7.044 22.879,7.488C22.823,7.932 22.713,8.597 22.546,9.484L20.009,22.505L13.686,22.505L16.182,9.776C16.375,8.833 16.473,8.112 16.473,7.613C16.473,5.949 15.668,5.117 14.06,5.117C13.2,5.117 12.327,5.387 11.439,5.928C10.552,6.469 9.775,7.169 9.11,8.029L6.323,22.505L0,22.505Z" style="fill:rgb(251,201,67);fill-rule:nonzero;"/>
                </g>
                <g transform="matrix(8.33333,0,0,8.33333,541.775,1233.09)">
                    <path d="M0,-29.452L0.957,-34.319L8.07,-34.319L7.114,-29.452L0,-29.452ZM-4.243,-3.577L-0.832,-21.132L-2.246,-23.046L-1.789,-25.583L6.365,-25.583L2.08,-3.577L-4.243,-3.577ZM-22.255,1.914L-20.716,0.25C-19.746,-0.805 -19.039,-1.844 -18.595,-2.87C-18.151,-3.896 -17.804,-5.089 -17.555,-6.448L-14.768,-20.924L-18.47,-20.924L-17.846,-24.21L-13.853,-25.542L-13.561,-27.039C-13.007,-29.895 -11.959,-31.962 -10.42,-33.237C-8.881,-34.513 -6.809,-35.151 -4.201,-35.151C-3.397,-35.151 -2.538,-35.068 -1.622,-34.901L-2.579,-30.118L-3.494,-30.118C-4.604,-30.118 -5.464,-29.854 -6.073,-29.327C-6.684,-28.8 -7.1,-27.926 -7.321,-26.706L-7.529,-25.583L-3.453,-25.583L-4.368,-20.924L-8.444,-20.924L-11.315,-6.032C-11.592,-4.506 -11.939,-3.182 -12.355,-2.059C-12.771,-0.936 -13.333,0.125 -14.04,1.123C-14.747,2.122 -15.71,3.217 -16.931,4.41L-18.262,5.699L-22.255,1.914Z" style="fill:rgb(251,201,67);fill-rule:nonzero;"/>
                </g>
                <g transform="matrix(8.33333,0,0,8.33333,630.866,1015.74)">
                    <path d="M0,22.505L4.285,0.499L8.403,0.499L8.777,3.869C9.914,2.621 11.19,1.664 12.604,0.998C14.019,0.333 15.447,0 16.889,0C18.886,0 20.397,0.589 21.423,1.768C22.449,2.947 22.962,4.437 22.962,6.24C22.962,6.629 22.935,7.044 22.879,7.488C22.823,7.932 22.713,8.597 22.546,9.484L20.009,22.505L13.686,22.505L16.182,9.776C16.375,8.833 16.473,8.112 16.473,7.613C16.473,5.949 15.668,5.117 14.06,5.117C13.2,5.117 12.327,5.387 11.439,5.928C10.552,6.469 9.775,7.169 9.11,8.029L6.323,22.505L0,22.505Z" style="fill:rgb(251,201,67);fill-rule:nonzero;"/>
                </g>
                <g transform="matrix(8.33333,0,0,8.33333,908.189,1162.73)">
                    <path d="M0,-21.008L0.957,-25.875L8.07,-25.875L7.113,-21.008L0,-21.008ZM-4.243,4.867L-0.832,-12.688L-2.829,-14.602L-2.372,-17.139L6.364,-17.139L2.08,4.867L-4.243,4.867Z" style="fill:rgb(251,201,67);fill-rule:nonzero;"/>
                </g>
                <g transform="matrix(8.33333,0,0,8.33333,1025.7,1046.24)">
                    <path d="M0,9.693L1.622,1.498L-2.247,1.498L-1.623,-1.788L2.829,-3.203L5.824,-9.484L10.067,-9.484L8.86,-3.161L13.686,-3.161L12.771,1.498L7.945,1.498L6.406,9.402C6.184,10.428 6.073,11.177 6.073,11.648C6.073,12.37 6.274,12.945 6.676,13.375C7.078,13.805 7.681,14.019 8.486,14.019C9.345,14.019 10.094,13.964 10.732,13.853L9.692,18.72C9.137,18.858 8.479,18.969 7.716,19.053C6.953,19.136 6.253,19.177 5.616,19.177C3.536,19.177 2.003,18.616 1.019,17.493C0.034,16.37 -0.458,14.949 -0.458,13.229C-0.458,12.869 -0.431,12.425 -0.375,11.898C-0.319,11.371 -0.195,10.636 0,9.693" style="fill:rgb(251,201,67);fill-rule:nonzero;"/>
                </g>
                <g transform="matrix(8.33333,0,0,8.33333,1227.46,1089.92)">
                    <path d="M0,5.2C0,6.504 0.256,7.481 0.77,8.133C1.282,8.785 1.94,9.11 2.745,9.11C3.577,9.11 4.389,8.854 5.179,8.341C5.969,7.828 6.669,7.128 7.28,6.24L9.235,-3.827C8.957,-3.91 8.645,-3.986 8.299,-4.056C7.952,-4.125 7.557,-4.16 7.113,-4.16C5.643,-4.16 4.374,-3.73 3.307,-2.87C2.239,-2.01 1.421,-0.866 0.853,0.562C0.284,1.99 0,3.536 0,5.2M7.945,13.603L7.612,10.317C6.614,11.565 5.47,12.508 4.181,13.145C2.891,13.783 1.608,14.102 0.333,14.102C-1.664,14.102 -3.28,13.402 -4.514,12.001C-5.748,10.601 -6.365,8.597 -6.365,5.99C-6.365,3.994 -6.067,2.101 -5.47,0.312C-4.875,-1.477 -4.001,-3.064 -2.85,-4.451C-1.699,-5.837 -0.271,-6.926 1.435,-7.717C3.141,-8.507 5.102,-8.902 7.321,-8.902C8.957,-8.902 10.524,-8.757 12.022,-8.465C13.52,-8.174 14.878,-7.737 16.099,-7.155L12.063,13.603L7.945,13.603Z" style="fill:rgb(251,201,67);fill-rule:nonzero;"/>
                </g>
                <g transform="matrix(-8.33333,0,0,8.33333,2748.09,-6280.29)">
                    <rect x="88.508" y="906.307" width="240.48" height="6.742" style="fill:rgb(186,80,60);"/>
                </g>
                <g transform="matrix(8.33333,0,0,8.33333,26.8214,1380.69)">
                    <path d="M0,12.223L0,0L7.75,0L7.75,1.782L2.102,1.782L2.102,5.145L7.263,5.145L7.263,6.927L2.102,6.927L2.102,10.441L7.918,10.441L7.918,12.223L0,12.223Z" style="fill:rgb(251,201,67);fill-rule:nonzero;"/>
                </g>
                <g transform="matrix(8.33333,0,0,8.33333,116.486,1412.35)">
                    <path d="M0,8.02L0,6.355C0.56,6.58 1.064,6.74 1.513,6.835C1.961,6.93 2.432,6.978 2.925,6.978C4.125,6.978 4.724,6.636 4.724,5.952C4.724,5.694 4.626,5.484 4.43,5.322C4.234,5.159 3.895,5.01 3.413,4.876L2.102,4.523C1.306,4.299 0.723,3.988 0.353,3.59C-0.017,3.192 -0.202,2.679 -0.202,2.051C-0.202,1.222 0.118,0.572 0.756,0.101C1.396,-0.37 2.264,-0.605 3.362,-0.605C3.889,-0.605 4.399,-0.56 4.893,-0.47C5.385,-0.381 5.806,-0.257 6.153,-0.1L6.153,1.53C5.246,1.183 4.343,1.009 3.446,1.009C2.359,1.009 1.816,1.312 1.816,1.917C1.816,2.152 1.911,2.346 2.102,2.497C2.292,2.648 2.611,2.786 3.06,2.909L4.371,3.279C5.234,3.525 5.845,3.842 6.204,4.229C6.562,4.615 6.742,5.156 6.742,5.851C6.742,6.737 6.417,7.421 5.767,7.902C5.116,8.384 4.192,8.625 2.993,8.625C2.443,8.625 1.894,8.569 1.345,8.457C0.795,8.345 0.347,8.199 0,8.02" style="fill:rgb(251,201,67);fill-rule:nonzero;"/>
                </g>
                <g transform="matrix(8.33333,0,0,8.33333,243.138,1407.32)">
                    <path d="M0,9.028L0,0.185L1.362,0.185L1.665,1.563C2.012,1.07 2.438,0.686 2.942,0.412C3.447,0.137 3.99,0 4.573,0C5.828,0 6.691,0.515 7.162,1.546C7.499,1.065 7.924,0.686 8.44,0.412C8.956,0.137 9.516,0 10.121,0C11.085,0 11.822,0.305 12.332,0.916C12.842,1.527 13.097,2.415 13.097,3.581L13.097,9.028L11.046,9.028L11.046,3.648C11.046,2.348 10.542,1.698 9.533,1.698C9.062,1.698 8.656,1.835 8.314,2.11C7.972,2.384 7.723,2.768 7.566,3.261L7.566,9.028L5.548,9.028L5.548,3.648C5.548,2.348 5.038,1.698 4.018,1.698C3.559,1.698 3.155,1.844 2.808,2.135C2.46,2.426 2.208,2.819 2.051,3.312L2.051,9.028L0,9.028Z" style="fill:rgb(251,201,67);fill-rule:nonzero;"/>
                </g>
                <g transform="matrix(8.33333,0,0,8.33333,414.203,1420.62)">
                    <path d="M0,6.019C1.49,6.019 2.236,5.016 2.236,3.01C2.236,1.003 1.49,-0 0,-0C-1.491,-0 -2.236,1.003 -2.236,3.01C-2.236,5.016 -1.491,6.019 0,6.019M0,7.616C-1.356,7.616 -2.413,7.213 -3.169,6.406C-3.926,5.599 -4.304,4.467 -4.304,3.01C-4.304,1.553 -3.926,0.42 -3.169,-0.387C-2.413,-1.194 -1.356,-1.597 0,-1.597C1.367,-1.597 2.426,-1.194 3.177,-0.387C3.928,0.42 4.304,1.553 4.304,3.01C4.304,4.467 3.928,5.599 3.177,6.406C2.426,7.213 1.367,7.616 0,7.616" style="fill:rgb(251,201,67);fill-rule:nonzero;"/>
                </g>
                <g transform="matrix(8.33333,0,0,8.33333,476.687,1407.32)">
                    <path d="M0,9.028L0,0.185L1.362,0.185L1.665,1.563C2.012,1.07 2.438,0.686 2.942,0.412C3.447,0.137 3.99,0 4.573,0C5.828,0 6.691,0.515 7.162,1.546C7.499,1.065 7.924,0.686 8.44,0.412C8.956,0.137 9.516,0 10.121,0C11.085,0 11.822,0.305 12.332,0.916C12.842,1.527 13.097,2.415 13.097,3.581L13.097,9.028L11.046,9.028L11.046,3.648C11.046,2.348 10.542,1.698 9.533,1.698C9.062,1.698 8.656,1.835 8.314,2.11C7.972,2.384 7.723,2.768 7.566,3.261L7.566,9.028L5.548,9.028L5.548,3.648C5.548,2.348 5.038,1.698 4.018,1.698C3.559,1.698 3.155,1.844 2.808,2.135C2.46,2.426 2.208,2.819 2.051,3.312L2.051,9.028L0,9.028Z" style="fill:rgb(251,201,67);fill-rule:nonzero;"/>
                </g>
                <g transform="matrix(8.33333,0,0,8.33333,646.776,1471.34)">
                    <path d="M0,-6.136C-1.345,-6.136 -2.068,-5.402 -2.169,-3.934L1.866,-3.934C1.855,-5.402 1.233,-6.136 0,-6.136M3.329,0.925C2.959,1.116 2.51,1.267 1.984,1.379C1.457,1.491 0.896,1.547 0.303,1.547C-1.155,1.547 -2.267,1.15 -3.035,0.354C-3.803,-0.442 -4.187,-1.602 -4.187,-3.127C-4.187,-4.584 -3.819,-5.707 -3.085,-6.497C-2.351,-7.288 -1.317,-7.683 0.017,-7.683C1.25,-7.683 2.18,-7.332 2.808,-6.632C3.435,-5.931 3.749,-4.931 3.749,-3.631L3.749,-2.488L-2.152,-2.488C-2.074,-1.647 -1.819,-1.036 -1.387,-0.655C-0.956,-0.274 -0.325,-0.084 0.504,-0.084C0.998,-0.084 1.462,-0.131 1.9,-0.226C2.337,-0.322 2.813,-0.476 3.329,-0.689L3.329,0.925Z" style="fill:rgb(251,201,67);fill-rule:nonzero;"/>
                </g>
                <g transform="matrix(8.33333,0,0,8.33333,704.218,1407.32)">
                    <path d="M0,9.028L0,0.185L1.362,0.185L1.665,1.614C2.057,1.098 2.519,0.7 3.052,0.42C3.584,0.14 4.181,0 4.842,0C5.862,0 6.641,0.305 7.179,0.916C7.717,1.527 7.986,2.415 7.986,3.581L7.986,9.028L5.935,9.028L5.935,3.648C5.935,2.348 5.38,1.698 4.271,1.698C3.789,1.698 3.349,1.844 2.951,2.135C2.553,2.426 2.253,2.819 2.051,3.312L2.051,9.028L0,9.028Z" style="fill:rgb(251,201,67);fill-rule:nonzero;"/>
                </g>
                <g transform="matrix(8.33333,0,0,8.33333,803.97,1412.92)">
                    <path d="M0,5.481L0,1.11L-1.53,1.11L-1.53,0.084L0.051,-0.521L0.74,-2.976L2.051,-2.976L2.051,-0.488L3.951,-0.488L3.951,1.11L2.051,1.11L2.051,5.464C2.051,5.935 2.158,6.274 2.371,6.481C2.583,6.689 2.897,6.792 3.312,6.792C3.436,6.792 3.567,6.79 3.708,6.784C3.847,6.778 3.962,6.77 4.052,6.759L4.052,8.373C3.828,8.406 3.623,8.429 3.438,8.44C3.253,8.451 3.049,8.457 2.825,8.457C1.872,8.457 1.163,8.216 0.698,7.734C0.232,7.252 0,6.501 0,5.481" style="fill:rgb(251,201,67);fill-rule:nonzero;"/>
                </g>
                <g transform="matrix(8.33333,0,0,8.33333,895.738,1420.62)">
                    <path d="M0,6.019C1.49,6.019 2.236,5.016 2.236,3.01C2.236,1.003 1.49,-0 0,-0C-1.491,-0 -2.236,1.003 -2.236,3.01C-2.236,5.016 -1.491,6.019 0,6.019M0,7.616C-1.356,7.616 -2.413,7.213 -3.169,6.406C-3.926,5.599 -4.304,4.467 -4.304,3.01C-4.304,1.553 -3.926,0.42 -3.169,-0.387C-2.413,-1.194 -1.356,-1.597 0,-1.597C1.367,-1.597 2.426,-1.194 3.177,-0.387C3.928,0.42 4.304,1.553 4.304,3.01C4.304,4.467 3.928,5.599 3.177,6.406C2.426,7.213 1.367,7.616 0,7.616" style="fill:rgb(251,201,67);fill-rule:nonzero;"/>
                </g>
                <g transform="matrix(8.33333,0,0,8.33333,1016.78,1415.72)">
                    <path d="M0,3.598C0,4.551 0.177,5.282 0.53,5.792C0.883,6.302 1.39,6.557 2.051,6.557C2.477,6.557 2.878,6.442 3.253,6.212C3.629,5.983 3.934,5.677 4.17,5.296L4.17,1.614C3.609,0.953 2.903,0.622 2.051,0.622C1.39,0.622 0.883,0.877 0.53,1.387C0.177,1.897 0,2.634 0,3.598M4.842,8.02L4.54,6.658C4.192,7.151 3.769,7.532 3.27,7.801C2.771,8.07 2.236,8.205 1.665,8.205C0.499,8.205 -0.415,7.798 -1.076,6.986C-1.737,6.173 -2.068,5.038 -2.068,3.581C-2.068,2.124 -1.74,0.995 -1.084,0.193C-0.429,-0.608 0.488,-1.009 1.665,-1.009C2.628,-1.009 3.458,-0.678 4.153,-0.017L4.153,-4.607L6.204,-4.607L6.204,8.02L4.842,8.02Z" style="fill:rgb(251,201,67);fill-rule:nonzero;"/>
                </g>
                <g transform="matrix(8.33333,0,0,8.33333,1129.99,1471.34)">
                    <path d="M0,-6.136C-1.345,-6.136 -2.068,-5.402 -2.169,-3.934L1.866,-3.934C1.855,-5.402 1.233,-6.136 0,-6.136M3.329,0.925C2.959,1.116 2.51,1.267 1.984,1.379C1.457,1.491 0.896,1.547 0.303,1.547C-1.155,1.547 -2.267,1.15 -3.035,0.354C-3.803,-0.442 -4.187,-1.602 -4.187,-3.127C-4.187,-4.584 -3.819,-5.707 -3.085,-6.497C-2.351,-7.288 -1.317,-7.683 0.017,-7.683C1.25,-7.683 2.18,-7.332 2.808,-6.632C3.435,-5.931 3.749,-4.931 3.749,-3.631L3.749,-2.488L-2.152,-2.488C-2.074,-1.647 -1.819,-1.036 -1.387,-0.655C-0.956,-0.274 -0.325,-0.084 0.504,-0.084C0.998,-0.084 1.462,-0.131 1.9,-0.226C2.337,-0.322 2.813,-0.476 3.329,-0.689L3.329,0.925Z" style="fill:rgb(251,201,67);fill-rule:nonzero;"/>
                </g>
                <g transform="matrix(8.33333,0,0,8.33333,1252.58,1436.6)">
                    <path d="M0,2.051C0,2.443 0.078,2.74 0.235,2.942C0.392,3.144 0.599,3.245 0.857,3.245C1.148,3.245 1.42,3.158 1.673,2.984C1.925,2.811 2.146,2.578 2.337,2.286L3.009,-1.177C2.931,-1.211 2.844,-1.236 2.749,-1.253C2.653,-1.269 2.539,-1.278 2.404,-1.278C1.9,-1.278 1.468,-1.121 1.109,-0.807C0.75,-0.493 0.476,-0.081 0.286,0.429C0.095,0.939 0,1.479 0,2.051M2.656,5.514L2.471,4.237C2.09,4.775 1.653,5.159 1.16,5.388C0.667,5.618 0.19,5.733 -0.269,5.733C-0.863,5.733 -1.37,5.584 -1.791,5.287C-2.211,4.991 -2.53,4.593 -2.749,4.094C-2.968,3.595 -3.077,3.043 -3.077,2.438C-3.077,1.631 -2.954,0.86 -2.707,0.126C-2.46,-0.608 -2.096,-1.261 -1.614,-1.833C-1.132,-2.404 -0.538,-2.855 0.168,-3.186C0.874,-3.517 1.681,-3.682 2.589,-3.682C3.306,-3.682 3.979,-3.623 4.606,-3.506C5.234,-3.388 5.806,-3.2 6.321,-2.942L4.69,5.514L2.656,5.514Z" style="fill:white;fill-rule:nonzero;"/>
                </g>
                <g transform="matrix(8.33333,0,0,8.33333,1347.85,1467.7)">
                    <path d="M0,-1.984C0,-1.592 0.078,-1.295 0.235,-1.093C0.392,-0.891 0.599,-0.79 0.857,-0.79C1.205,-0.79 1.51,-0.911 1.773,-1.152C2.037,-1.393 2.27,-1.709 2.471,-2.102L3.026,-4.926C2.947,-4.96 2.858,-4.988 2.757,-5.01C2.656,-5.033 2.544,-5.044 2.421,-5.044C1.917,-5.044 1.482,-4.893 1.118,-4.59C0.753,-4.287 0.476,-3.901 0.286,-3.43C0.095,-2.959 0,-2.477 0,-1.984M-3.648,4.859L-3.211,2.488C-2.875,2.634 -2.475,2.757 -2.009,2.858C-1.544,2.959 -1.149,3.009 -0.824,3.009C-0.208,3.009 0.28,2.939 0.639,2.799C0.997,2.659 1.274,2.443 1.471,2.152C1.667,1.86 1.815,1.479 1.917,1.009L2.034,0.454C1.675,0.902 1.289,1.222 0.874,1.412C0.459,1.603 0.078,1.698 -0.269,1.698C-0.863,1.698 -1.371,1.549 -1.791,1.252C-2.211,0.956 -2.53,0.558 -2.749,0.059C-2.968,-0.44 -3.077,-0.992 -3.077,-1.597C-3.077,-2.326 -2.954,-3.035 -2.707,-3.724C-2.46,-4.413 -2.096,-5.036 -1.614,-5.59C-1.132,-6.145 -0.536,-6.588 0.176,-6.918C0.888,-7.249 1.703,-7.414 2.623,-7.414C3.284,-7.414 3.942,-7.356 4.598,-7.238C5.254,-7.12 5.839,-6.932 6.355,-6.675L4.858,1.076C4.679,2.006 4.382,2.796 3.968,3.446C3.553,4.096 2.981,4.59 2.252,4.926C1.524,5.262 0.599,5.43 -0.521,5.43C-0.869,5.43 -1.236,5.408 -1.623,5.363C-2.009,5.318 -2.382,5.251 -2.741,5.161C-3.1,5.071 -3.402,4.971 -3.648,4.859" style="fill:white;fill-rule:nonzero;"/>
                </g>
                <g transform="matrix(8.33333,0,0,8.33333,1414.54,1407.59)">
                    <path d="M0,8.995L1.749,0.017L3.783,0.017L4.052,1.816C4.455,1.245 4.884,0.799 5.338,0.479C5.792,0.16 6.31,0 6.893,0C7.128,0 7.302,0.017 7.414,0.051L6.742,3.363L6.22,3.363C5.828,3.363 5.427,3.455 5.019,3.64C4.609,3.825 4.276,4.08 4.018,4.405L3.127,8.995L0,8.995Z" style="fill:white;fill-rule:nonzero;"/>
                </g>
                <g transform="matrix(8.33333,0,0,8.33333,1513.17,1436.6)">
                    <path d="M0,2.051C0,2.443 0.078,2.74 0.235,2.942C0.392,3.144 0.599,3.245 0.857,3.245C1.148,3.245 1.42,3.158 1.673,2.984C1.925,2.811 2.146,2.578 2.337,2.286L3.009,-1.177C2.931,-1.211 2.844,-1.236 2.749,-1.253C2.653,-1.269 2.539,-1.278 2.404,-1.278C1.9,-1.278 1.468,-1.121 1.109,-0.807C0.75,-0.493 0.476,-0.081 0.286,0.429C0.095,0.939 0,1.479 0,2.051M2.656,5.514L2.471,4.237C2.09,4.775 1.653,5.159 1.16,5.388C0.667,5.618 0.19,5.733 -0.269,5.733C-0.863,5.733 -1.37,5.584 -1.791,5.287C-2.211,4.991 -2.53,4.593 -2.749,4.094C-2.968,3.595 -3.077,3.043 -3.077,2.438C-3.077,1.631 -2.954,0.86 -2.707,0.126C-2.46,-0.608 -2.096,-1.261 -1.614,-1.833C-1.132,-2.404 -0.538,-2.855 0.168,-3.186C0.874,-3.517 1.681,-3.682 2.589,-3.682C3.306,-3.682 3.979,-3.623 4.606,-3.506C5.234,-3.388 5.806,-3.2 6.321,-2.942L4.69,5.514L2.656,5.514Z" style="fill:white;fill-rule:nonzero;"/>
                </g>
                <g transform="matrix(8.33333,0,0,8.33333,1608.29,1408.01)">
                    <path d="M0,5.481C0,5.873 0.078,6.17 0.235,6.372C0.392,6.574 0.6,6.675 0.857,6.675C1.138,6.675 1.401,6.591 1.647,6.423C1.894,6.254 2.119,6.03 2.32,5.75L3.009,2.287C2.886,2.219 2.769,2.175 2.656,2.152C2.544,2.13 2.438,2.119 2.337,2.119C1.877,2.119 1.471,2.27 1.118,2.572C0.765,2.875 0.49,3.279 0.294,3.783C0.098,4.287 0,4.853 0,5.481M2.707,8.944L2.522,7.599C2.129,8.16 1.681,8.561 1.177,8.801C0.672,9.042 0.19,9.163 -0.269,9.163C-0.863,9.163 -1.37,9.014 -1.791,8.717C-2.211,8.421 -2.53,8.023 -2.749,7.524C-2.967,7.025 -3.077,6.473 -3.077,5.868C-3.077,5.016 -2.957,4.22 -2.715,3.48C-2.474,2.741 -2.132,2.091 -1.689,1.53C-1.247,0.97 -0.723,0.533 -0.118,0.219C0.488,-0.095 1.149,-0.252 1.866,-0.252C2.124,-0.252 2.379,-0.224 2.631,-0.168C2.883,-0.112 3.122,-0.028 3.346,0.084L4.085,-3.682L7.212,-3.682L4.741,8.944L2.707,8.944Z" style="fill:white;fill-rule:nonzero;"/>
                </g>
                <g transform="matrix(8.33333,0,0,8.33333,1720.38,1466.72)">
                    <path d="M0,-5.179C-0.426,-5.179 -0.818,-5.008 -1.177,-4.666C-1.536,-4.324 -1.782,-3.834 -1.917,-3.195L-0.487,-3.414C0.375,-3.548 0.807,-3.901 0.807,-4.473C0.807,-4.686 0.734,-4.857 0.588,-4.986C0.443,-5.114 0.247,-5.179 0,-5.179M2.085,1.563C1.771,1.72 1.359,1.851 0.849,1.958C0.339,2.064 -0.23,2.118 -0.857,2.118C-2.168,2.118 -3.18,1.759 -3.892,1.042C-4.604,0.324 -4.959,-0.623 -4.959,-1.8C-4.959,-2.495 -4.845,-3.17 -4.615,-3.826C-4.385,-4.481 -4.043,-5.07 -3.589,-5.591C-3.135,-6.112 -2.578,-6.527 -1.917,-6.835C-1.255,-7.143 -0.493,-7.297 0.37,-7.297C1.401,-7.297 2.197,-7.045 2.757,-6.541C3.318,-6.037 3.598,-5.386 3.598,-4.591C3.598,-3.705 3.315,-3.024 2.749,-2.548C2.183,-2.071 1.351,-1.755 0.252,-1.598L-1.917,-1.279C-1.793,-0.852 -1.58,-0.567 -1.278,-0.421C-0.975,-0.275 -0.605,-0.203 -0.168,-0.203C0.325,-0.203 0.801,-0.264 1.261,-0.387C1.721,-0.511 2.158,-0.645 2.572,-0.791L2.085,1.563Z" style="fill:white;fill-rule:nonzero;"/>
                </g>
                <g transform="matrix(8.33333,0,0,8.33333,1825.45,1430.57)">
                    <path d="M0,3.497L-0.504,6.086C-0.729,6.165 -1.056,6.246 -1.488,6.33C-1.919,6.414 -2.348,6.456 -2.774,6.456C-4.097,6.456 -5.111,6.095 -5.817,5.372C-6.523,4.649 -6.876,3.688 -6.876,2.488C-6.876,1.861 -6.772,1.225 -6.565,0.58C-6.358,-0.064 -6.033,-0.653 -5.59,-1.185C-5.147,-1.717 -4.581,-2.146 -3.892,-2.471C-3.203,-2.796 -2.382,-2.959 -1.429,-2.959C-0.958,-2.959 -0.527,-2.914 -0.134,-2.824C0.258,-2.735 0.583,-2.623 0.841,-2.488L0.354,-0.017C0.106,-0.118 -0.163,-0.199 -0.454,-0.261C-0.745,-0.322 -1.02,-0.353 -1.277,-0.353C-2.062,-0.353 -2.67,-0.126 -3.102,0.328C-3.533,0.782 -3.749,1.356 -3.749,2.051C-3.749,2.668 -3.586,3.113 -3.261,3.388C-2.937,3.663 -2.494,3.8 -1.933,3.8C-1.575,3.8 -1.216,3.766 -0.857,3.699C-0.499,3.632 -0.213,3.564 0,3.497" style="fill:white;fill-rule:nonzero;"/>
                </g>
                <g transform="matrix(8.33333,0,0,8.33333,1890.18,1466.72)">
                    <path d="M0,-5.179C-0.426,-5.179 -0.818,-5.008 -1.177,-4.666C-1.536,-4.324 -1.782,-3.834 -1.917,-3.195L-0.487,-3.414C0.375,-3.548 0.807,-3.901 0.807,-4.473C0.807,-4.686 0.734,-4.857 0.588,-4.986C0.443,-5.114 0.247,-5.179 0,-5.179M2.085,1.563C1.771,1.72 1.359,1.851 0.849,1.958C0.339,2.064 -0.23,2.118 -0.857,2.118C-2.168,2.118 -3.18,1.759 -3.892,1.042C-4.604,0.324 -4.959,-0.623 -4.959,-1.8C-4.959,-2.495 -4.845,-3.17 -4.615,-3.826C-4.385,-4.481 -4.043,-5.07 -3.589,-5.591C-3.135,-6.112 -2.578,-6.527 -1.917,-6.835C-1.255,-7.143 -0.493,-7.297 0.37,-7.297C1.401,-7.297 2.197,-7.045 2.757,-6.541C3.318,-6.037 3.598,-5.386 3.598,-4.591C3.598,-3.705 3.315,-3.024 2.749,-2.548C2.183,-2.071 1.351,-1.755 0.252,-1.598L-1.917,-1.279C-1.793,-0.852 -1.58,-0.567 -1.278,-0.421C-0.975,-0.275 -0.605,-0.203 -0.168,-0.203C0.325,-0.203 0.801,-0.264 1.261,-0.387C1.721,-0.511 2.158,-0.645 2.572,-0.791L2.085,1.563Z" style="fill:white;fill-rule:nonzero;"/>
                </g>
                <g transform="matrix(8.33333,0,0,8.33333,1934.32,1407.59)">
                    <path d="M0,8.995L1.749,0.017L3.783,0.017L4.052,1.816C4.455,1.245 4.884,0.799 5.338,0.479C5.792,0.16 6.31,0 6.893,0C7.128,0 7.302,0.017 7.414,0.051L6.742,3.363L6.22,3.363C5.828,3.363 5.427,3.455 5.019,3.64C4.609,3.825 4.276,4.08 4.018,4.405L3.127,8.995L0,8.995Z" style="fill:white;fill-rule:nonzero;"/>
                </g>
                <g transform="matrix(8.33333,0,0,8.33333,60.5855,1633.97)">
                    <path d="M0,-9.112C-0.426,-9.112 -0.827,-8.997 -1.202,-8.767C-1.578,-8.538 -1.883,-8.232 -2.119,-7.851L-2.119,-4.169C-1.558,-3.508 -0.852,-3.177 0,-3.177C0.661,-3.177 1.168,-3.432 1.521,-3.942C1.875,-4.452 2.051,-5.189 2.051,-6.153C2.051,-7.117 1.875,-7.851 1.521,-8.356C1.168,-8.86 0.661,-9.112 0,-9.112M-4.153,1.648L-4.153,-10.575L-2.791,-10.575L-2.488,-9.213C-2.141,-9.706 -1.718,-10.087 -1.219,-10.356C-0.72,-10.625 -0.185,-10.76 0.387,-10.76C1.552,-10.76 2.466,-10.353 3.127,-9.541C3.788,-8.728 4.119,-7.593 4.119,-6.136C4.119,-4.679 3.791,-3.55 3.135,-2.749C2.48,-1.947 1.563,-1.546 0.387,-1.546C-0.578,-1.546 -1.407,-1.877 -2.102,-2.538L-2.102,1.648L-4.153,1.648Z" style="fill:rgb(251,201,67);fill-rule:nonzero;"/>
                </g>
                <g transform="matrix(8.33333,0,0,8.33333,153.192,1557.61)">
                    <path d="M0,6.019C1.49,6.019 2.236,5.016 2.236,3.01C2.236,1.003 1.49,-0 0,-0C-1.491,-0 -2.236,1.003 -2.236,3.01C-2.236,5.016 -1.491,6.019 0,6.019M0,7.616C-1.356,7.616 -2.413,7.213 -3.169,6.406C-3.926,5.599 -4.304,4.467 -4.304,3.01C-4.304,1.553 -3.926,0.42 -3.169,-0.387C-2.413,-1.194 -1.356,-1.597 0,-1.597C1.367,-1.597 2.426,-1.194 3.177,-0.387C3.928,0.42 4.304,1.553 4.304,3.01C4.304,4.467 3.928,5.599 3.177,6.406C2.426,7.213 1.367,7.616 0,7.616" style="fill:rgb(251,201,67);fill-rule:nonzero;"/>
                </g>
                <g transform="matrix(8.33333,0,0,8.33333,215.676,1545.56)">
                    <path d="M0,8.877L0,0.034L1.362,0.034L1.681,1.496C1.961,1.026 2.314,0.659 2.741,0.395C3.167,0.132 3.665,0 4.237,0C4.45,0 4.646,0.017 4.825,0.05L4.825,1.883L4.338,1.883C3.721,1.883 3.217,2.054 2.825,2.396C2.432,2.738 2.174,3.189 2.051,3.749L2.051,8.877L0,8.877Z" style="fill:rgb(251,201,67);fill-rule:nonzero;"/>
                </g>
                <g transform="matrix(8.33333,0,0,8.33333,357.741,1608.33)">
                    <path d="M0,-6.136C-1.345,-6.136 -2.068,-5.402 -2.169,-3.934L1.866,-3.934C1.855,-5.402 1.233,-6.136 0,-6.136M3.329,0.925C2.959,1.116 2.51,1.267 1.984,1.379C1.457,1.491 0.896,1.547 0.303,1.547C-1.155,1.547 -2.267,1.15 -3.035,0.354C-3.803,-0.442 -4.187,-1.602 -4.187,-3.127C-4.187,-4.584 -3.819,-5.707 -3.085,-6.497C-2.351,-7.288 -1.317,-7.683 0.017,-7.683C1.25,-7.683 2.18,-7.332 2.808,-6.632C3.435,-5.931 3.749,-4.931 3.749,-3.631L3.749,-2.488L-2.152,-2.488C-2.074,-1.647 -1.819,-1.036 -1.387,-0.655C-0.956,-0.274 -0.325,-0.084 0.504,-0.084C0.998,-0.084 1.462,-0.131 1.9,-0.226C2.337,-0.322 2.813,-0.476 3.329,-0.689L3.329,0.925Z" style="fill:rgb(251,201,67);fill-rule:nonzero;"/>
                </g>
                <g transform="matrix(8.33333,0,0,8.33333,415.184,1514.32)">
                    <path d="M0,12.626L0,1.496L-0.891,0.84L-0.891,0L2.051,0L2.051,12.626L0,12.626Z" style="fill:rgb(251,201,67);fill-rule:nonzero;"/>
                </g>
                <g transform="matrix(8.33333,0,0,8.33333,532.03,1557.2)">
                    <path d="M0,6.136C0.415,6.136 0.807,6.027 1.177,5.808C1.547,5.59 1.85,5.284 2.085,4.892L2.085,3.227L0.622,3.227C-0.734,3.227 -1.412,3.721 -1.412,4.707C-1.412,5.155 -1.289,5.506 -1.042,5.758C-0.796,6.01 -0.448,6.136 0,6.136M2.724,7.481L2.438,6.17C2.113,6.652 1.704,7.024 1.21,7.288C0.717,7.551 0.174,7.683 -0.42,7.683C-1.328,7.683 -2.048,7.431 -2.581,6.926C-3.113,6.422 -3.379,5.738 -3.379,4.875C-3.379,3.956 -3.043,3.233 -2.371,2.706C-1.698,2.18 -0.779,1.916 0.387,1.916L2.051,1.916L2.051,1.496C2.051,0.935 1.934,0.554 1.698,0.352C1.463,0.151 1.048,0.05 0.454,0.05C-0.432,0.05 -1.44,0.257 -2.572,0.672L-2.572,-0.925C-2.124,-1.116 -1.614,-1.267 -1.042,-1.379C-0.471,-1.491 0.09,-1.547 0.639,-1.547C2.937,-1.547 4.085,-0.539 4.085,1.479L4.085,7.481L2.724,7.481Z" style="fill:rgb(251,201,67);fill-rule:nonzero;"/>
                </g>
                <g transform="matrix(8.33333,0,0,8.33333,609.366,1609.31)">
                    <path d="M0,-3.194C0,-2.23 0.177,-1.493 0.53,-0.983C0.883,-0.473 1.39,-0.218 2.051,-0.218C2.881,-0.218 3.587,-0.577 4.17,-1.294L4.17,-4.959C3.945,-5.329 3.646,-5.621 3.27,-5.834C2.895,-6.046 2.488,-6.153 2.051,-6.153C1.39,-6.153 0.883,-5.901 0.53,-5.397C0.177,-4.892 0,-4.158 0,-3.194M4.153,4.607L4.153,0.353C3.805,0.69 3.416,0.95 2.984,1.135C2.553,1.32 2.113,1.413 1.665,1.413C0.488,1.413 -0.429,1.012 -1.084,0.21C-1.74,-0.591 -2.068,-1.72 -2.068,-3.177C-2.068,-4.634 -1.737,-5.769 -1.076,-6.582C-0.415,-7.394 0.499,-7.801 1.665,-7.801C2.259,-7.801 2.802,-7.672 3.295,-7.414C3.789,-7.156 4.203,-6.792 4.54,-6.321L4.842,-7.616L6.204,-7.616L6.204,4.607L4.153,4.607Z" style="fill:rgb(251,201,67);fill-rule:nonzero;"/>
                </g>
                <g transform="matrix(8.33333,0,0,8.33333,691.327,1575.69)">
                    <path d="M0,1.866L0,-3.581L2.051,-3.581L2.051,1.799C2.051,3.099 2.566,3.749 3.598,3.749C4.057,3.749 4.486,3.603 4.884,3.312C5.282,3.021 5.582,2.628 5.783,2.135L5.783,-3.581L7.834,-3.581L7.834,5.262L6.473,5.262L6.153,3.833C5.783,4.349 5.332,4.747 4.8,5.027C4.267,5.307 3.687,5.447 3.06,5.447C2.073,5.447 1.316,5.139 0.79,4.522C0.263,3.906 0,3.021 0,1.866" style="fill:rgb(251,201,67);fill-rule:nonzero;"/>
                </g>
                <g transform="matrix(8.33333,0,0,8.33333,784.353,1597.68)">
                    <path d="M0,-7.38L1.765,-10.003L3.934,-10.003L1.698,-7.38L0,-7.38ZM0.504,2.623L0.504,-4.724L-0.387,-5.379L-0.387,-6.22L2.555,-6.22L2.555,2.623L0.504,2.623Z" style="fill:rgb(251,201,67);fill-rule:nonzero;"/>
                </g>
                <g transform="matrix(8.33333,0,0,8.33333,899.656,1577.51)">
                    <path d="M0,4.959L-3.094,-3.8L-0.975,-3.8L1.53,3.664L3.598,-3.8L5.632,-3.8L3.127,4.589C2.858,5.475 2.544,6.197 2.186,6.758C1.827,7.318 1.384,7.753 0.857,8.061C0.33,8.369 -0.331,8.602 -1.126,8.759L-1.564,7.077C-0.802,6.887 -0.23,6.64 0.151,6.338C0.532,6.035 0.829,5.575 1.042,4.959L0,4.959Z" style="fill:rgb(251,201,67);fill-rule:nonzero;"/>
                </g>
                <g transform="matrix(8.33333,0,0,8.33333,1045.5,1608.33)">
                    <path d="M0,-6.136C-1.345,-6.136 -2.068,-5.402 -2.169,-3.934L1.866,-3.934C1.855,-5.402 1.233,-6.136 0,-6.136M3.329,0.925C2.959,1.116 2.51,1.267 1.984,1.379C1.457,1.491 0.896,1.547 0.303,1.547C-1.155,1.547 -2.267,1.15 -3.035,0.354C-3.803,-0.442 -4.187,-1.602 -4.187,-3.127C-4.187,-4.584 -3.819,-5.707 -3.085,-6.497C-2.351,-7.288 -1.317,-7.683 0.017,-7.683C1.25,-7.683 2.18,-7.332 2.808,-6.632C3.435,-5.931 3.749,-4.931 3.749,-3.631L3.749,-2.488L-2.152,-2.488C-2.074,-1.647 -1.819,-1.036 -1.387,-0.655C-0.956,-0.274 -0.325,-0.084 0.504,-0.084C0.998,-0.084 1.462,-0.131 1.9,-0.226C2.337,-0.322 2.813,-0.476 3.329,-0.689L3.329,0.925Z" style="fill:rgb(251,201,67);fill-rule:nonzero;"/>
                </g>
                <g transform="matrix(8.33333,0,0,8.33333,1102.94,1514.32)">
                    <path d="M0,12.626L0,1.496L-0.891,0.84L-0.891,0L2.051,0L2.051,12.626L0,12.626Z" style="fill:rgb(251,201,67);fill-rule:nonzero;"/>
                </g>
                <g transform="matrix(8.33333,0,0,8.33333,1219.79,1557.2)">
                    <path d="M0,6.136C0.415,6.136 0.807,6.027 1.177,5.808C1.547,5.59 1.85,5.284 2.085,4.892L2.085,3.227L0.622,3.227C-0.734,3.227 -1.412,3.721 -1.412,4.707C-1.412,5.155 -1.289,5.506 -1.042,5.758C-0.796,6.01 -0.448,6.136 0,6.136M2.724,7.481L2.438,6.17C2.113,6.652 1.704,7.024 1.21,7.288C0.717,7.551 0.174,7.683 -0.42,7.683C-1.328,7.683 -2.048,7.431 -2.581,6.926C-3.113,6.422 -3.379,5.738 -3.379,4.875C-3.379,3.956 -3.043,3.233 -2.371,2.706C-1.698,2.18 -0.779,1.916 0.387,1.916L2.051,1.916L2.051,1.496C2.051,0.935 1.934,0.554 1.698,0.352C1.463,0.151 1.048,0.05 0.454,0.05C-0.432,0.05 -1.44,0.257 -2.572,0.672L-2.572,-0.925C-2.124,-1.116 -1.614,-1.267 -1.042,-1.379C-0.471,-1.491 0.09,-1.547 0.639,-1.547C2.937,-1.547 4.085,-0.539 4.085,1.479L4.085,7.481L2.724,7.481Z" style="fill:rgb(251,201,67);fill-rule:nonzero;"/>
                </g>
                <g transform="matrix(8.33333,0,0,8.33333,1284.1,1514.32)">
                    <path d="M0,12.626L0,0L2.051,0L2.051,4.892C2.398,4.478 2.805,4.158 3.27,3.934C3.735,3.71 4.259,3.598 4.842,3.598C5.862,3.598 6.641,3.903 7.179,4.514C7.717,5.125 7.986,6.013 7.986,7.179L7.986,12.626L5.935,12.626L5.935,7.246C5.935,5.946 5.38,5.296 4.271,5.296C3.789,5.296 3.349,5.442 2.951,5.733C2.553,6.024 2.253,6.417 2.051,6.91L2.051,12.626L0,12.626Z" style="fill:rgb(251,201,67);fill-rule:nonzero;"/>
                </g>
                <g transform="matrix(8.33333,0,0,8.33333,1412.57,1557.61)">
                    <path d="M0,6.019C1.49,6.019 2.236,5.016 2.236,3.01C2.236,1.003 1.49,-0 0,-0C-1.491,-0 -2.236,1.003 -2.236,3.01C-2.236,5.016 -1.491,6.019 0,6.019M0,7.616C-1.356,7.616 -2.413,7.213 -3.169,6.406C-3.926,5.599 -4.304,4.467 -4.304,3.01C-4.304,1.553 -3.926,0.42 -3.169,-0.387C-2.413,-1.194 -1.356,-1.597 0,-1.597C1.367,-1.597 2.426,-1.194 3.177,-0.387C3.928,0.42 4.304,1.553 4.304,3.01C4.304,4.467 3.928,5.599 3.177,6.406C2.426,7.213 1.367,7.616 0,7.616" style="fill:rgb(251,201,67);fill-rule:nonzero;"/>
                </g>
                <g transform="matrix(8.33333,0,0,8.33333,1475.06,1545.56)">
                    <path d="M0,8.877L0,0.034L1.362,0.034L1.681,1.496C1.961,1.026 2.314,0.659 2.741,0.395C3.167,0.132 3.665,0 4.237,0C4.45,0 4.646,0.017 4.825,0.05L4.825,1.883L4.338,1.883C3.721,1.883 3.217,2.054 2.825,2.396C2.432,2.738 2.174,3.189 2.051,3.749L2.051,8.877L0,8.877Z" style="fill:rgb(251,201,67);fill-rule:nonzero;"/>
                </g>
                <g transform="matrix(8.33333,0,0,8.33333,1564.3,1557.2)">
                    <path d="M0,6.136C0.415,6.136 0.807,6.027 1.177,5.808C1.547,5.59 1.85,5.284 2.085,4.892L2.085,3.227L0.622,3.227C-0.734,3.227 -1.412,3.721 -1.412,4.707C-1.412,5.155 -1.289,5.506 -1.042,5.758C-0.796,6.01 -0.448,6.136 0,6.136M2.724,7.481L2.438,6.17C2.113,6.652 1.704,7.024 1.21,7.288C0.717,7.551 0.174,7.683 -0.42,7.683C-1.328,7.683 -2.048,7.431 -2.581,6.926C-3.113,6.422 -3.379,5.738 -3.379,4.875C-3.379,3.956 -3.043,3.233 -2.371,2.706C-1.698,2.18 -0.779,1.916 0.387,1.916L2.051,1.916L2.051,1.496C2.051,0.935 1.934,0.554 1.698,0.352C1.463,0.151 1.048,0.05 0.454,0.05C-0.432,0.05 -1.44,0.257 -2.572,0.672L-2.572,-0.925C-2.124,-1.116 -1.614,-1.267 -1.042,-1.379C-0.471,-1.491 0.09,-1.547 0.639,-1.547C2.937,-1.547 4.085,-0.539 4.085,1.479L4.085,7.481L2.724,7.481Z" style="fill:rgb(251,201,67);fill-rule:nonzero;"/>
                </g>
                <g transform="matrix(8.33333,0,0,8.33333,-731.041,-5659.59)">
                    <rect x="282.956" y="871.377" width="2.404" height="2.118" style="fill:rgb(251,201,67);"/>
                </g>
            </g>
        </g>
    </g>
</svg>
