<?xml version="1.0" encoding="UTF-8" standalone="no"?>
<!DOCTYPE svg PUBLIC "-//W3C//DTD SVG 1.1//EN" "http://www.w3.org/Graphics/SVG/1.1/DTD/svg11.dtd">
<svg width="100%" height="100%" viewBox="0 0 494 182" version="1.1" xmlns="http://www.w3.org/2000/svg" xmlns:xlink="http://www.w3.org/1999/xlink" xml:space="preserve" xmlns:serif="http://www.serif.com/" style="fill-rule:evenodd;clip-rule:evenodd;stroke-linejoin:round;stroke-miterlimit:2;">
    <g transform="matrix(1,0,0,1,0,-1380)">
        <g id="Artboard2" transform="matrix(0.959871,0,0,0.680404,0,973.387)">
            <rect x="0" y="597.605" width="514.653" height="267.488" style="fill:none;"/>
            <g transform="matrix(0.254913,0,0,0.359615,0.240123,383.293)">
                <g transform="matrix(8.33333,0,0,8.33333,140.001,719.427)">
                    <path d="M0,4.534L0,1.04L11.19,1.04L11.19,15.891C8.195,17.278 4.839,17.971 1.124,17.971C-3.979,17.971 -7.841,16.612 -10.462,13.894C-13.083,11.176 -14.393,7.183 -14.393,1.913C-14.393,-1.331 -13.749,-4.098 -12.458,-6.386C-11.169,-8.674 -9.312,-10.421 -6.884,-11.627C-4.458,-12.834 -1.525,-13.437 1.914,-13.437C3.189,-13.437 4.458,-13.326 5.72,-13.104C6.981,-12.882 8.167,-12.549 9.277,-12.106L9.277,-6.614C7.862,-7.058 6.6,-7.37 5.491,-7.55C4.382,-7.731 3.272,-7.821 2.163,-7.821C-1.026,-7.821 -3.473,-6.982 -5.179,-5.304C-6.884,-3.626 -7.737,-1.22 -7.737,1.913C-7.737,5.408 -6.996,8.022 -5.512,9.755C-4.028,11.488 -1.761,12.355 1.29,12.355C2.593,12.355 3.869,12.271 5.117,12.105L5.117,6.24L0,4.534Z" style="fill:white;fill-rule:nonzero;"/>
                </g>
                <g transform="matrix(8.33333,0,0,8.33333,352.846,679.903)">
                    <path d="M0,22.131L-6.323,22.131L-6.323,0.125L-2.205,0.125L-1.331,3.37C-0.61,2.316 0.292,1.491 1.373,0.895C2.455,0.299 3.703,0 5.117,0C5.727,0 6.254,0.042 6.698,0.125L6.698,5.824L5.367,5.824C3.952,5.824 2.773,6.192 1.831,6.927C0.888,7.662 0.277,8.639 0,9.859L0,22.131Z" style="fill:white;fill-rule:nonzero;"/>
                </g>
                <g transform="matrix(8.33333,0,0,8.33333,533.8,715.259)">
                    <path d="M0,13.77C0.915,13.77 1.761,13.535 2.538,13.063C3.313,12.592 3.952,11.954 4.451,11.149L4.451,7.572L1.498,7.572C0.055,7.572 -1.061,7.849 -1.851,8.404C-2.642,8.959 -3.037,9.749 -3.037,10.775C-3.037,12.772 -2.025,13.77 0,13.77M6.157,17.888L5.325,14.81C4.576,15.92 3.598,16.793 2.392,17.431C1.186,18.068 -0.153,18.387 -1.623,18.387C-3.897,18.387 -5.693,17.764 -7.01,16.515C-8.327,15.268 -8.985,13.548 -8.985,11.357C-8.985,9.056 -8.112,7.239 -6.365,5.908C-4.618,4.577 -2.261,3.911 0.707,3.911L4.326,3.911L4.326,3.121C4.326,1.901 4.021,1.11 3.411,0.749C2.801,0.389 1.844,0.209 0.541,0.209C-1.789,0.209 -4.299,0.736 -6.989,1.79L-6.989,-2.994C-5.88,-3.466 -4.583,-3.854 -3.099,-4.159C-1.616,-4.464 -0.111,-4.617 1.414,-4.617C4.298,-4.617 6.496,-3.958 8.008,-2.641C9.519,-1.323 10.275,0.569 10.275,3.037L10.275,17.888L6.157,17.888Z" style="fill:white;fill-rule:nonzero;"/>
                </g>
                <g transform="matrix(8.33333,0,0,8.33333,700.54,693.77)">
                    <path d="M0,12.896L0,3.203L-3.869,3.203L-3.869,0.042L0.291,-1.664L2.163,-7.862L6.323,-7.862L6.323,-1.539L11.024,-1.539L11.024,3.203L6.323,3.203L6.323,12.563C6.323,13.645 6.593,14.414 7.134,14.872C7.675,15.33 8.458,15.558 9.485,15.558C9.762,15.558 10.067,15.552 10.4,15.538C10.732,15.524 11.024,15.503 11.273,15.475L11.273,20.509C10.608,20.619 10.004,20.689 9.464,20.717C8.923,20.744 8.32,20.758 7.654,20.758C5.13,20.758 3.224,20.121 1.935,18.845C0.645,17.569 0,15.586 0,12.896" style="fill:white;fill-rule:nonzero;"/>
                </g>
                <g transform="matrix(8.33333,0,0,8.33333,-731.041,-7408.54)">
                    <path d="M190.051,962.002L197.04,962.002L197.04,966.869L190.051,966.869L190.051,962.002ZM190.717,992.744L190.717,975.189L188.429,973.275L188.429,970.738L197.04,970.738L197.04,992.744L190.717,992.744Z" style="fill:white;fill-rule:nonzero;"/>
                </g>
                <g transform="matrix(8.33333,0,0,8.33333,993.806,693.77)">
                    <path d="M0,12.896L0,3.203L-3.869,3.203L-3.869,0.042L0.291,-1.664L2.163,-7.862L6.323,-7.862L6.323,-1.539L11.024,-1.539L11.024,3.203L6.323,3.203L6.323,12.563C6.323,13.645 6.593,14.414 7.134,14.872C7.675,15.33 8.458,15.558 9.485,15.558C9.762,15.558 10.067,15.552 10.4,15.538C10.732,15.524 11.024,15.503 11.273,15.475L11.273,20.509C10.608,20.619 10.004,20.689 9.464,20.717C8.923,20.744 8.32,20.758 7.654,20.758C5.13,20.758 3.224,20.121 1.935,18.845C0.645,17.569 0,15.586 0,12.896" style="fill:white;fill-rule:nonzero;"/>
                </g>
                <g transform="matrix(8.33333,0,0,8.33333,1147.37,755.818)">
                    <path d="M0,4.535L0,-8.985L6.323,-8.985L6.323,4.327C6.323,7.017 7.376,8.362 9.484,8.362C10.427,8.362 11.294,8.064 12.084,7.468C12.875,6.872 13.492,6.061 13.936,5.034L13.936,-8.985L20.259,-8.985L20.259,13.021L16.14,13.021L15.267,9.652C13.242,12.231 10.677,13.52 7.571,13.52C5.13,13.52 3.258,12.744 1.955,11.191C0.651,9.638 0,7.42 0,4.535" style="fill:white;fill-rule:nonzero;"/>
                </g>
                <g transform="matrix(8.33333,0,0,8.33333,1512.05,677.126)">
                    <path d="M0,14.186L-0.25,14.852C-0.139,14.63 -0.056,14.408 0,14.186M-9.443,11.441C-9.443,13.66 -9.069,15.365 -8.32,16.557C-7.571,17.75 -6.518,18.346 -5.159,18.346C-4.299,18.346 -3.488,18.131 -2.725,17.701C-1.962,17.271 -1.332,16.696 -0.832,15.975L-0.832,6.573C-1.942,5.242 -3.37,4.577 -5.117,4.577C-6.504,4.577 -7.571,5.166 -8.32,6.345C-9.069,7.524 -9.443,9.222 -9.443,11.441M1.29,22.464L0.416,19.219C-1.359,21.715 -3.661,22.963 -6.49,22.963C-9.375,22.963 -11.648,21.944 -13.312,19.906C-14.976,17.868 -15.808,15.06 -15.808,11.482C-15.808,7.849 -14.997,5.021 -13.375,2.996C-11.752,0.972 -9.471,-0.041 -6.531,-0.041C-4.341,-0.041 -2.469,0.694 -0.916,2.164L-0.916,-8.777L5.408,-8.777L5.408,22.464L1.29,22.464Z" style="fill:white;fill-rule:nonzero;"/>
                </g>
                <g transform="matrix(8.33333,0,0,8.33333,47.793,1162.73)">
                    <path d="M0,-21.008L0.957,-25.875L8.07,-25.875L7.113,-21.008L0,-21.008ZM-4.243,4.867L-0.832,-12.688L-2.829,-14.602L-2.372,-17.139L6.364,-17.139L2.08,4.867L-4.243,4.867Z" style="fill:rgb(251,201,67);fill-rule:nonzero;"/>
                </g>
                <g transform="matrix(8.33333,0,0,8.33333,136.88,1015.74)">
                    <path d="M0,22.505L4.285,0.499L8.403,0.499L8.777,3.869C9.914,2.621 11.19,1.664 12.604,0.998C14.019,0.333 15.447,0 16.889,0C18.886,0 20.397,0.589 21.423,1.768C22.449,2.947 22.962,4.437 22.962,6.24C22.962,6.629 22.935,7.044 22.879,7.488C22.823,7.932 22.713,8.597 22.546,9.484L20.009,22.505L13.686,22.505L16.182,9.776C16.375,8.833 16.473,8.112 16.473,7.613C16.473,5.949 15.668,5.117 14.06,5.117C13.2,5.117 12.327,5.387 11.439,5.928C10.552,6.469 9.775,7.169 9.11,8.029L6.323,22.505L0,22.505Z" style="fill:rgb(251,201,67);fill-rule:nonzero;"/>
                </g>
                <g transform="matrix(8.33333,0,0,8.33333,541.775,1233.09)">
                    <path d="M0,-29.452L0.957,-34.319L8.07,-34.319L7.114,-29.452L0,-29.452ZM-4.243,-3.577L-0.832,-21.132L-2.246,-23.046L-1.789,-25.583L6.365,-25.583L2.08,-3.577L-4.243,-3.577ZM-22.255,1.914L-20.716,0.25C-19.746,-0.805 -19.039,-1.844 -18.595,-2.87C-18.151,-3.896 -17.804,-5.089 -17.555,-6.448L-14.768,-20.924L-18.47,-20.924L-17.846,-24.21L-13.853,-25.542L-13.561,-27.039C-13.007,-29.895 -11.959,-31.962 -10.42,-33.237C-8.881,-34.513 -6.809,-35.151 -4.201,-35.151C-3.397,-35.151 -2.538,-35.068 -1.622,-34.901L-2.579,-30.118L-3.494,-30.118C-4.604,-30.118 -5.464,-29.854 -6.073,-29.327C-6.684,-28.8 -7.1,-27.926 -7.321,-26.706L-7.529,-25.583L-3.453,-25.583L-4.368,-20.924L-8.444,-20.924L-11.315,-6.032C-11.592,-4.506 -11.939,-3.182 -12.355,-2.059C-12.771,-0.936 -13.333,0.125 -14.04,1.123C-14.747,2.122 -15.71,3.217 -16.931,4.41L-18.262,5.699L-22.255,1.914Z" style="fill:rgb(251,201,67);fill-rule:nonzero;"/>
                </g>
                <g transform="matrix(8.33333,0,0,8.33333,630.866,1015.74)">
                    <path d="M0,22.505L4.285,0.499L8.403,0.499L8.777,3.869C9.914,2.621 11.19,1.664 12.604,0.998C14.019,0.333 15.447,0 16.889,0C18.886,0 20.397,0.589 21.423,1.768C22.449,2.947 22.962,4.437 22.962,6.24C22.962,6.629 22.935,7.044 22.879,7.488C22.823,7.932 22.713,8.597 22.546,9.484L20.009,22.505L13.686,22.505L16.182,9.776C16.375,8.833 16.473,8.112 16.473,7.613C16.473,5.949 15.668,5.117 14.06,5.117C13.2,5.117 12.327,5.387 11.439,5.928C10.552,6.469 9.775,7.169 9.11,8.029L6.323,22.505L0,22.505Z" style="fill:rgb(251,201,67);fill-rule:nonzero;"/>
                </g>
                <g transform="matrix(8.33333,0,0,8.33333,908.189,1162.73)">
                    <path d="M0,-21.008L0.957,-25.875L8.07,-25.875L7.113,-21.008L0,-21.008ZM-4.243,4.867L-0.832,-12.688L-2.829,-14.602L-2.372,-17.139L6.364,-17.139L2.08,4.867L-4.243,4.867Z" style="fill:rgb(251,201,67);fill-rule:nonzero;"/>
                </g>
                <g transform="matrix(8.33333,0,0,8.33333,1025.7,1046.24)">
                    <path d="M0,9.693L1.622,1.498L-2.247,1.498L-1.623,-1.788L2.829,-3.203L5.824,-9.484L10.067,-9.484L8.86,-3.161L13.686,-3.161L12.771,1.498L7.945,1.498L6.406,9.402C6.184,10.428 6.073,11.177 6.073,11.648C6.073,12.37 6.274,12.945 6.676,13.375C7.078,13.805 7.681,14.019 8.486,14.019C9.345,14.019 10.094,13.964 10.732,13.853L9.692,18.72C9.137,18.858 8.479,18.969 7.716,19.053C6.953,19.136 6.253,19.177 5.616,19.177C3.536,19.177 2.003,18.616 1.019,17.493C0.034,16.37 -0.458,14.949 -0.458,13.229C-0.458,12.869 -0.431,12.425 -0.375,11.898C-0.319,11.371 -0.195,10.636 0,9.693" style="fill:rgb(251,201,67);fill-rule:nonzero;"/>
                </g>
                <g transform="matrix(8.33333,0,0,8.33333,1227.46,1089.92)">
                    <path d="M0,5.2C0,6.504 0.256,7.481 0.77,8.133C1.282,8.785 1.94,9.11 2.745,9.11C3.577,9.11 4.389,8.854 5.179,8.341C5.969,7.828 6.669,7.128 7.28,6.24L9.235,-3.827C8.957,-3.91 8.645,-3.986 8.299,-4.056C7.952,-4.125 7.557,-4.16 7.113,-4.16C5.643,-4.16 4.374,-3.73 3.307,-2.87C2.239,-2.01 1.421,-0.866 0.853,0.562C0.284,1.99 0,3.536 0,5.2M7.945,13.603L7.612,10.317C6.614,11.565 5.47,12.508 4.181,13.145C2.891,13.783 1.608,14.102 0.333,14.102C-1.664,14.102 -3.28,13.402 -4.514,12.001C-5.748,10.601 -6.365,8.597 -6.365,5.99C-6.365,3.994 -6.067,2.101 -5.47,0.312C-4.875,-1.477 -4.001,-3.064 -2.85,-4.451C-1.699,-5.837 -0.271,-6.926 1.435,-7.717C3.141,-8.507 5.102,-8.902 7.321,-8.902C8.957,-8.902 10.524,-8.757 12.022,-8.465C13.52,-8.174 14.878,-7.737 16.099,-7.155L12.063,13.603L7.945,13.603Z" style="fill:rgb(251,201,67);fill-rule:nonzero;"/>
                </g>
                <g transform="matrix(-8.33333,0,0,8.33333,2748.09,-6280.29)">
                    <rect x="88.508" y="906.307" width="240.48" height="6.742" style="fill:rgb(186,80,60);"/>
                </g>
            </g>
        </g>
    </g>
</svg>
