<?xml version="1.0" encoding="UTF-8" standalone="no"?>
<!DOCTYPE svg PUBLIC "-//W3C//DTD SVG 1.1//EN" "http://www.w3.org/Graphics/SVG/1.1/DTD/svg11.dtd">
<svg width="100%" height="100%" viewBox="0 0 1600 512" version="1.1" xmlns="http://www.w3.org/2000/svg" xmlns:xlink="http://www.w3.org/1999/xlink" xml:space="preserve" xmlns:serif="http://www.serif.com/" style="fill-rule:evenodd;clip-rule:evenodd;stroke-linejoin:round;stroke-miterlimit:2;">
    <g transform="matrix(1,0,0,1,-550,0)">
        <g id="Favicon" transform="matrix(3.125,0,0,1,-668.75,-262)">
            <rect x="390" y="262" width="512" height="512" style="fill:none;"/>
            <g transform="matrix(2.66667,0,0,8.33333,840.717,449.908)">
                <path d="M0,15.06C-3.392,15.06 -6.251,12.782 -7.134,9.667L11.682,9.667L14.275,5.631L-7.134,5.631C-6.255,2.509 -3.392,0.238 0,0.238L12.919,0.238L15.502,-3.809L-0.294,-3.809C-6.612,-3.809 -11.738,1.317 -11.738,7.649C-11.738,13.974 -6.612,19.09 -0.294,19.09L13.294,19.09L15.877,15.06L0,15.06M-53.846,19.09L-40.257,19.09L-37.685,15.06L-53.544,15.06C-57.654,15.06 -60.966,11.735 -60.966,7.649C-60.966,3.546 -57.654,0.238 -53.544,0.238L-40.636,0.238L-38.032,-3.809L-53.846,-3.809C-60.174,-3.809 -65.314,1.317 -65.314,7.649C-65.314,13.974 -60.174,19.09 -53.846,19.09M-137.455,15.06L-150.167,15.06C-154.258,15.06 -157.573,11.735 -157.573,7.649C-157.573,3.546 -154.258,0.238 -150.167,0.238L-137.455,0.238C-133.35,0.238 -130.039,3.546 -130.039,7.649C-130.039,11.735 -133.35,15.06 -137.455,15.06M-150.46,19.09L-137.15,19.09C-130.819,19.09 -125.72,13.974 -125.72,7.649C-125.72,1.317 -130.819,-3.809 -137.15,-3.809L-150.46,-3.809C-156.785,-3.809 -161.915,1.317 -161.915,7.649C-161.915,13.974 -156.785,19.09 -150.46,19.09M-104.108,11.675C-99.821,11.675 -96.374,8.206 -96.374,3.931C-96.374,-0.343 -99.821,-3.809 -104.108,-3.809L-123.373,-3.809L-123.373,19.09L-118.97,19.09L-118.97,0.238L-104.4,0.238C-102.356,0.238 -100.698,1.889 -100.698,3.931C-100.698,5.971 -102.356,7.649 -104.4,7.649L-116.817,7.639L-103.666,19.09L-97.278,19.09L-106.11,11.675L-104.108,11.675M-31.27,15.046L-31.27,-3.809L-35.681,-3.809L-35.681,16.9C-35.681,17.464 -35.443,18.018 -35.029,18.417C-34.609,18.851 -34.031,19.09 -33.425,19.09L-13.364,19.09L-10.75,15.046L-31.27,15.046M-85.161,11.016L-73.415,11.016L-79.621,1.002L-91.012,19.09L-96.216,19.09L-82.347,-2.618C-81.755,-3.497 -80.739,-4.03 -79.628,-4.03C-78.542,-4.03 -77.543,-3.515 -76.951,-2.656L-63.04,19.09L-68.23,19.09L-70.675,15.046L-82.568,15.046L-85.161,11.016Z" style="fill:rgb(202,73,51);fill-rule:nonzero;"/>
            </g>
        </g>
    </g>
</svg>
