<?xml version="1.0" encoding="UTF-8" standalone="no"?>
<!DOCTYPE svg PUBLIC "-//W3C//DTD SVG 1.1//EN" "http://www.w3.org/Graphics/SVG/1.1/DTD/svg11.dtd">
<svg width="100%" height="100%" viewBox="0 0 754 116" version="1.1" xmlns="http://www.w3.org/2000/svg" xmlns:xlink="http://www.w3.org/1999/xlink" xml:space="preserve" xmlns:serif="http://www.serif.com/" style="fill-rule:evenodd;clip-rule:evenodd;stroke-linejoin:round;stroke-miterlimit:2;">
    <g transform="matrix(1,0,0,1,-1,-887)">
        <g id="Artboard4" transform="matrix(0.986237,0,0,0.851985,-0.683166,130.603)">
            <rect x="1.707" y="887.806" width="764.522" height="136.153" style="fill:none;"/>
            <g transform="matrix(0.0321099,0,0,0.0459379,610.976,560.635)">
                <g transform="matrix(77.5819,0,0,62.7737,-17020.5,7212.73)">
                    <path d="M0,15.157L0,0L9.069,0L9.069,1.084L1.251,1.084L1.251,6.901L8.465,6.901L8.465,7.985L1.251,7.985L1.251,14.073L9.278,14.073L9.278,15.157L0,15.157Z" style="fill:rgb(242,239,233);fill-rule:nonzero;"/>
                </g>
                <g transform="matrix(77.5819,0,0,62.7737,-16098.5,7473.18)">
                    <path d="M0,11.008L0,0.208L0.896,0.208L1.167,2.189C1.612,1.494 2.179,0.955 2.866,0.573C3.555,0.191 4.315,0 5.149,0C6.4,0 7.359,0.368 8.026,1.105C8.693,1.841 9.027,2.912 9.027,4.315L9.027,11.008L7.818,11.008L7.818,4.357C7.818,2.161 6.859,1.063 4.94,1.063C4.162,1.063 3.43,1.313 2.741,1.814C2.054,2.314 1.542,3.002 1.209,3.878L1.209,11.008L0,11.008Z" style="fill:rgb(242,239,233);fill-rule:nonzero;"/>
                </g>
                <g transform="matrix(77.5819,0,0,62.7737,-14569.9,7590.94)">
                    <path d="M0,7.464L0,8.548C-0.403,8.785 -0.894,8.976 -1.47,9.122C-2.047,9.267 -2.627,9.34 -3.211,9.34C-6.519,9.34 -8.173,7.429 -8.173,3.607C-8.173,1.856 -7.735,0.504 -6.859,-0.448C-5.983,-1.4 -4.747,-1.876 -3.148,-1.876C-2.05,-1.876 -1.112,-1.633 -0.333,-1.147L-0.333,-0.062C-1.251,-0.563 -2.168,-0.813 -3.086,-0.813C-5.657,-0.813 -6.942,0.66 -6.942,3.607C-6.942,5.191 -6.634,6.366 -6.015,7.131C-5.396,7.895 -4.455,8.277 -3.189,8.277C-2.703,8.277 -2.199,8.211 -1.679,8.079C-1.157,7.947 -0.598,7.742 0,7.464" style="fill:rgb(242,239,233);fill-rule:nonzero;"/>
                </g>
                <g transform="matrix(77.5819,0,0,62.7737,-38908.8,-8852.78)">
                    <path d="M315.782,256.135L317.47,256.135L317.47,257.407L315.782,257.407L315.782,256.135ZM316.282,271.084L316.282,261.369L315.24,260.806L315.24,260.284L317.492,260.284L317.492,271.084L316.282,271.084Z" style="fill:rgb(242,239,233);fill-rule:nonzero;"/>
                </g>
                <g transform="matrix(77.5819,0,0,62.7737,-13707.9,8111.84)">
                    <path d="M0,-9.132C-1.098,-9.132 -1.942,-8.802 -2.533,-8.142C-3.124,-7.481 -3.447,-6.519 -3.502,-5.254L3.19,-5.254L3.19,-5.546C3.19,-7.936 2.127,-9.132 0,-9.132M3.837,0.208C3.447,0.473 2.926,0.678 2.273,0.824C1.619,0.969 0.945,1.042 0.251,1.042C-3.071,1.042 -4.732,-0.862 -4.732,-4.67C-4.732,-6.449 -4.326,-7.811 -3.513,-8.757C-2.699,-9.702 -1.528,-10.174 0,-10.174C2.905,-10.174 4.357,-8.486 4.357,-5.108L4.357,-4.274L-3.502,-4.274C-3.447,-2.828 -3.103,-1.758 -2.47,-1.063C-1.838,-0.368 -0.896,-0.021 0.354,-0.021C1.509,-0.021 2.669,-0.299 3.837,-0.855L3.837,0.208Z" style="fill:rgb(242,239,233);fill-rule:nonzero;"/>
                </g>
                <g transform="matrix(77.5819,0,0,62.7737,-13170.8,7473.18)">
                    <path d="M0,11.008L0,0.208L0.896,0.208L1.167,2.189C1.612,1.494 2.179,0.955 2.866,0.573C3.555,0.191 4.315,0 5.149,0C6.4,0 7.359,0.368 8.026,1.105C8.693,1.841 9.027,2.912 9.027,4.315L9.027,11.008L7.818,11.008L7.818,4.357C7.818,2.161 6.859,1.063 4.94,1.063C4.162,1.063 3.43,1.313 2.741,1.814C2.054,2.314 1.542,3.002 1.209,3.878L1.209,11.008L0,11.008Z" style="fill:rgb(242,239,233);fill-rule:nonzero;"/>
                </g>
                <g transform="matrix(77.5819,0,0,62.7737,-12179.3,7533.32)">
                    <path d="M0,4.65C0,6.082 0.295,7.201 0.886,8.007C1.477,8.813 2.301,9.216 3.356,9.216C4.149,9.216 4.872,8.969 5.525,8.476C6.179,7.983 6.665,7.353 6.984,6.589L6.984,1.814C6.512,1.259 5.97,0.831 5.358,0.532C4.746,0.233 4.114,0.084 3.461,0.084C2.363,0.084 1.512,0.477 0.907,1.262C0.303,2.047 0,3.177 0,4.65M7.276,10.05L7.026,8.194C6.609,8.806 6.067,9.303 5.4,9.685C4.732,10.067 4.017,10.258 3.253,10.258C1.835,10.258 0.729,9.765 -0.062,8.778C-0.854,7.791 -1.251,6.415 -1.251,4.65C-1.251,2.871 -0.852,1.491 -0.052,0.511C0.747,-0.469 1.869,-0.958 3.315,-0.958C3.982,-0.958 4.636,-0.816 5.274,-0.531C5.914,-0.246 6.477,0.133 6.964,0.605L6.964,-5.608L8.173,-5.608L8.173,10.05L7.276,10.05Z" style="fill:rgb(242,239,233);fill-rule:nonzero;"/>
                </g>
                <g transform="matrix(77.5819,0,0,62.7737,-10975.9,8111.84)">
                    <path d="M0,-9.132C-1.098,-9.132 -1.942,-8.802 -2.533,-8.142C-3.124,-7.481 -3.447,-6.519 -3.502,-5.254L3.19,-5.254L3.19,-5.546C3.19,-7.936 2.127,-9.132 0,-9.132M3.837,0.208C3.447,0.473 2.926,0.678 2.273,0.824C1.619,0.969 0.945,1.042 0.251,1.042C-3.071,1.042 -4.732,-0.862 -4.732,-4.67C-4.732,-6.449 -4.326,-7.811 -3.513,-8.757C-2.699,-9.702 -1.528,-10.174 0,-10.174C2.905,-10.174 4.357,-8.486 4.357,-5.108L4.357,-4.274L-3.502,-4.274C-3.447,-2.828 -3.103,-1.758 -2.47,-1.063C-1.838,-0.368 -0.896,-0.021 0.354,-0.021C1.509,-0.021 2.669,-0.299 3.837,-0.855L3.837,0.208Z" style="fill:rgb(242,239,233);fill-rule:nonzero;"/>
                </g>
                <g transform="matrix(77.5819,0,0,62.7737,-10050.7,7757.15)">
                    <path d="M0,2.377L0,-4.316L1.209,-4.316L1.209,2.335C1.209,4.532 2.141,5.629 4.003,5.629C4.781,5.629 5.497,5.376 6.15,4.868C6.804,4.361 7.297,3.677 7.631,2.815L7.631,-4.316L8.84,-4.316L8.84,6.484L7.943,6.484L7.672,4.524C7.241,5.206 6.695,5.737 6.036,6.119C5.375,6.502 4.628,6.693 3.794,6.693C2.571,6.693 1.633,6.321 0.979,5.577C0.326,4.834 0,3.767 0,2.377" style="fill:rgb(242,239,233);fill-rule:nonzero;"/>
                </g>
                <g transform="matrix(77.5819,0,0,62.7737,-9109.26,7473.18)">
                    <path d="M0,11.008L0,0.208L0.896,0.208L1.167,2.189C1.612,1.494 2.179,0.955 2.866,0.573C3.555,0.191 4.315,0 5.149,0C6.4,0 7.359,0.368 8.026,1.105C8.693,1.841 9.027,2.912 9.027,4.315L9.027,11.008L7.818,11.008L7.818,4.357C7.818,2.161 6.859,1.063 4.94,1.063C4.162,1.063 3.43,1.313 2.741,1.814C2.054,2.314 1.542,3.002 1.209,3.878L1.209,11.008L0,11.008Z" style="fill:rgb(242,239,233);fill-rule:nonzero;"/>
                </g>
                <g transform="matrix(77.5819,0,0,62.7737,-7944.7,7538.59)">
                    <path d="M0,9.132C0.737,9.132 1.439,8.889 2.106,8.402C2.773,7.916 3.273,7.29 3.607,6.526L3.607,4.337L0.834,4.337C-1.32,4.337 -2.397,5.15 -2.397,6.776C-2.397,7.527 -2.188,8.107 -1.771,8.517C-1.354,8.927 -0.764,9.132 0,9.132M3.899,9.966L3.649,8.069C3.218,8.722 2.669,9.236 2.002,9.611C1.335,9.987 0.64,10.174 -0.083,10.174C-1.167,10.174 -2.025,9.872 -2.658,9.267C-3.29,8.663 -3.606,7.853 -3.606,6.839C-3.606,5.741 -3.225,4.889 -2.46,4.285C-1.695,3.68 -0.632,3.378 0.73,3.378L3.565,3.378L3.565,2.46C3.565,1.585 3.364,0.956 2.961,0.573C2.558,0.191 1.884,0 0.938,0C-0.174,0 -1.369,0.257 -2.647,0.772L-2.647,-0.271C-2.175,-0.493 -1.602,-0.678 -0.928,-0.823C-0.253,-0.969 0.383,-1.042 0.98,-1.042C2.273,-1.042 3.229,-0.75 3.847,-0.167C4.466,0.417 4.774,1.307 4.774,2.502L4.774,9.966L3.899,9.966Z" style="fill:rgb(242,239,233);fill-rule:nonzero;"/>
                </g>
                <g transform="matrix(77.5819,0,0,62.7737,-6699.14,7486.23)">
                    <path d="M0,10.8L-4.295,0L-3.023,0L0.542,9.32L4.086,0L5.316,0L1,10.8L0,10.8Z" style="fill:rgb(242,239,233);fill-rule:nonzero;"/>
                </g>
                <g transform="matrix(77.5819,0,0,62.7737,-5819.3,8111.84)">
                    <path d="M0,-9.132C-1.098,-9.132 -1.942,-8.802 -2.533,-8.142C-3.124,-7.481 -3.447,-6.519 -3.502,-5.254L3.19,-5.254L3.19,-5.546C3.19,-7.936 2.127,-9.132 0,-9.132M3.837,0.208C3.447,0.473 2.926,0.678 2.273,0.824C1.619,0.969 0.945,1.042 0.251,1.042C-3.071,1.042 -4.732,-0.862 -4.732,-4.67C-4.732,-6.449 -4.326,-7.811 -3.513,-8.757C-2.699,-9.702 -1.528,-10.174 0,-10.174C2.905,-10.174 4.357,-8.486 4.357,-5.108L4.357,-4.274L-3.502,-4.274C-3.447,-2.828 -3.103,-1.758 -2.47,-1.063C-1.838,-0.368 -0.896,-0.021 0.354,-0.021C1.509,-0.021 2.669,-0.299 3.837,-0.855L3.837,0.208Z" style="fill:rgb(242,239,233);fill-rule:nonzero;"/>
                </g>
                <g transform="matrix(77.5819,0,0,62.7737,-5282.29,7181.28)">
                    <path d="M0,15.658L0,1.043L-1.043,0.48L-1.043,0L1.209,0L1.209,15.658L0,15.658Z" style="fill:rgb(242,239,233);fill-rule:nonzero;"/>
                </g>
                <g transform="matrix(77.5819,0,0,62.7737,-4716.19,7538.59)">
                    <path d="M0,9.132C0.737,9.132 1.439,8.889 2.106,8.402C2.773,7.916 3.273,7.29 3.607,6.526L3.607,4.337L0.834,4.337C-1.32,4.337 -2.397,5.15 -2.397,6.776C-2.397,7.527 -2.188,8.107 -1.771,8.517C-1.354,8.927 -0.764,9.132 0,9.132M3.899,9.966L3.649,8.069C3.218,8.722 2.669,9.236 2.002,9.611C1.335,9.987 0.64,10.174 -0.083,10.174C-1.167,10.174 -2.025,9.872 -2.658,9.267C-3.29,8.663 -3.606,7.853 -3.606,6.839C-3.606,5.741 -3.225,4.889 -2.46,4.285C-1.695,3.68 -0.632,3.378 0.73,3.378L3.565,3.378L3.565,2.46C3.565,1.585 3.364,0.956 2.961,0.573C2.558,0.191 1.884,0 0.938,0C-0.174,0 -1.369,0.257 -2.647,0.772L-2.647,-0.271C-2.175,-0.493 -1.602,-0.678 -0.928,-0.823C-0.253,-0.969 0.383,-1.042 0.98,-1.042C2.273,-1.042 3.229,-0.75 3.847,-0.167C4.466,0.417 4.774,1.307 4.774,2.502L4.774,9.966L3.899,9.966Z" style="fill:rgb(242,239,233);fill-rule:nonzero;"/>
                </g>
                <g transform="matrix(77.5819,0,0,62.7737,-3485.33,7772.87)">
                    <path d="M0,6.192L-4.106,-4.566L-2.835,-4.566L0.918,5.483L4.358,-4.566L5.588,-4.566L1.752,6.317C1.418,7.276 1.074,8.048 0.72,8.631C0.365,9.215 -0.045,9.67 -0.511,9.997C-0.977,10.323 -1.55,10.577 -2.23,10.758L-2.501,9.716C-1.751,9.507 -1.153,9.163 -0.708,8.684C-0.264,8.204 0.153,7.457 0.543,6.442L0.646,6.192L0,6.192Z" style="fill:rgb(242,239,233);fill-rule:nonzero;"/>
                </g>
                <g transform="matrix(77.5819,0,0,62.7737,-2458.21,7533.32)">
                    <path d="M0,4.65C0,6.082 0.295,7.201 0.886,8.007C1.477,8.813 2.301,9.216 3.356,9.216C4.149,9.216 4.872,8.969 5.525,8.476C6.179,7.983 6.665,7.353 6.984,6.589L6.984,1.814C6.512,1.259 5.97,0.831 5.358,0.532C4.746,0.233 4.114,0.084 3.461,0.084C2.363,0.084 1.512,0.477 0.907,1.262C0.303,2.047 0,3.177 0,4.65M7.276,10.05L7.026,8.194C6.609,8.806 6.067,9.303 5.4,9.685C4.732,10.067 4.017,10.258 3.253,10.258C1.835,10.258 0.729,9.765 -0.062,8.778C-0.854,7.791 -1.251,6.415 -1.251,4.65C-1.251,2.871 -0.852,1.491 -0.052,0.511C0.747,-0.469 1.869,-0.958 3.315,-0.958C3.982,-0.958 4.636,-0.816 5.274,-0.531C5.914,-0.246 6.477,0.133 6.964,0.605L6.964,-5.608L8.173,-5.608L8.173,10.05L7.276,10.05Z" style="fill:rgb(242,239,233);fill-rule:nonzero;"/>
                </g>
                <g transform="matrix(77.5819,0,0,62.7737,-1254.78,8111.84)">
                    <path d="M0,-9.132C-1.098,-9.132 -1.942,-8.802 -2.533,-8.142C-3.124,-7.481 -3.447,-6.519 -3.502,-5.254L3.19,-5.254L3.19,-5.546C3.19,-7.936 2.127,-9.132 0,-9.132M3.837,0.208C3.447,0.473 2.926,0.678 2.273,0.824C1.619,0.969 0.945,1.042 0.251,1.042C-3.071,1.042 -4.732,-0.862 -4.732,-4.67C-4.732,-6.449 -4.326,-7.811 -3.513,-8.757C-2.699,-9.702 -1.528,-10.174 0,-10.174C2.905,-10.174 4.357,-8.486 4.357,-5.108L4.357,-4.274L-3.502,-4.274C-3.447,-2.828 -3.103,-1.758 -2.47,-1.063C-1.838,-0.368 -0.896,-0.021 0.354,-0.021C1.509,-0.021 2.669,-0.299 3.837,-0.855L3.837,0.208Z" style="fill:rgb(242,239,233);fill-rule:nonzero;"/>
                </g>
                <g transform="matrix(77.5819,0,0,62.7737,-38908.8,-8574)">
                    <path d="M491.934,251.694L493.622,251.694L493.622,252.966L491.934,252.966L491.934,251.694ZM491.976,271.084L491.205,270.292L491.58,269.896C491.872,269.576 492.087,269.18 492.226,268.707C492.365,268.235 492.434,267.644 492.434,266.935L492.434,256.928L491.392,256.365L491.392,255.843L493.644,255.843L493.644,266.956C493.644,267.776 493.553,268.464 493.373,269.02C493.192,269.576 492.88,270.097 492.434,270.584L491.976,271.084Z" style="fill:rgb(242,239,233);fill-rule:nonzero;"/>
                </g>
                <g transform="matrix(77.5819,0,0,62.7737,-138.705,7538.59)">
                    <path d="M0,9.132C0.737,9.132 1.439,8.889 2.106,8.402C2.773,7.916 3.273,7.29 3.607,6.526L3.607,4.337L0.834,4.337C-1.32,4.337 -2.397,5.15 -2.397,6.776C-2.397,7.527 -2.188,8.107 -1.771,8.517C-1.354,8.927 -0.764,9.132 0,9.132M3.899,9.966L3.649,8.069C3.218,8.722 2.669,9.236 2.002,9.611C1.335,9.987 0.64,10.174 -0.083,10.174C-1.167,10.174 -2.025,9.872 -2.658,9.267C-3.29,8.663 -3.606,7.853 -3.606,6.839C-3.606,5.741 -3.225,4.889 -2.46,4.285C-1.695,3.68 -0.632,3.378 0.73,3.378L3.565,3.378L3.565,2.46C3.565,1.585 3.364,0.956 2.961,0.573C2.558,0.191 1.884,0 0.938,0C-0.174,0 -1.369,0.257 -2.647,0.772L-2.647,-0.271C-2.175,-0.493 -1.602,-0.678 -0.928,-0.823C-0.253,-0.969 0.383,-1.042 0.98,-1.042C2.273,-1.042 3.229,-0.75 3.847,-0.167C4.466,0.417 4.774,1.307 4.774,2.502L4.774,9.966L3.899,9.966Z" style="fill:rgb(242,239,233);fill-rule:nonzero;"/>
                </g>
                <g transform="matrix(77.5819,0,0,62.7737,867.431,7757.15)">
                    <path d="M0,2.377L0,-4.316L1.209,-4.316L1.209,2.335C1.209,4.532 2.141,5.629 4.003,5.629C4.781,5.629 5.497,5.376 6.15,4.868C6.804,4.361 7.297,3.677 7.631,2.815L7.631,-4.316L8.84,-4.316L8.84,6.484L7.943,6.484L7.672,4.524C7.241,5.206 6.695,5.737 6.036,6.119C5.375,6.502 4.628,6.693 3.794,6.693C2.571,6.693 1.633,6.321 0.979,5.577C0.326,4.834 0,3.767 0,2.377" style="fill:rgb(242,239,233);fill-rule:nonzero;"/>
                </g>
                <g transform="matrix(77.5819,0,0,62.7737,1808.79,7473.18)">
                    <path d="M0,11.008L0,0.208L0.896,0.208L1.167,2.189C1.612,1.494 2.179,0.955 2.866,0.573C3.555,0.191 4.315,0 5.149,0C6.4,0 7.359,0.368 8.026,1.105C8.693,1.841 9.027,2.912 9.027,4.315L9.027,11.008L7.818,11.008L7.818,4.357C7.818,2.161 6.859,1.063 4.94,1.063C4.162,1.063 3.43,1.313 2.741,1.814C2.054,2.314 1.542,3.002 1.209,3.878L1.209,11.008L0,11.008Z" style="fill:rgb(242,239,233);fill-rule:nonzero;"/>
                </g>
                <g transform="matrix(77.5819,0,0,62.7737,-18911.3,9026.7)">
                    <path d="M0,11.279L0,0.25L2.064,0.25L2.502,1.876C3.433,0.625 4.643,0 6.13,0C7.645,0 8.694,0.591 9.278,1.772C9.709,1.216 10.24,0.781 10.873,0.469C11.505,0.156 12.183,0 12.905,0C14.115,0 15.039,0.385 15.679,1.157C16.317,1.928 16.638,3.044 16.638,4.503L16.638,11.279L13.469,11.279L13.469,4.607C13.469,3.259 12.947,2.585 11.905,2.585C11.433,2.585 11.022,2.731 10.675,3.023C10.327,3.315 10.063,3.725 9.883,4.253L9.883,11.279L6.755,11.279L6.755,4.607C6.755,3.259 6.241,2.585 5.212,2.585C4.739,2.585 4.326,2.731 3.972,3.023C3.617,3.315 3.35,3.725 3.169,4.253L3.169,11.279L0,11.279Z" style="fill:rgb(253,199,56);fill-rule:nonzero;"/>
                </g>
                <g transform="matrix(77.5819,0,0,62.7737,-17033.4,9606.48)">
                    <path d="M0,-6.943C-1.488,-6.943 -2.287,-6.185 -2.398,-4.67L1.938,-4.67C1.91,-5.379 1.723,-5.935 1.376,-6.338C1.028,-6.741 0.569,-6.943 0,-6.943M4.232,1.522C3.161,2.036 1.883,2.293 0.396,2.293C-1.495,2.293 -2.947,1.796 -3.962,0.802C-4.977,-0.191 -5.483,-1.626 -5.483,-3.503C-5.483,-5.296 -4.994,-6.7 -4.014,-7.714C-3.034,-8.729 -1.683,-9.236 0.041,-9.236C1.57,-9.236 2.737,-8.791 3.544,-7.902C4.35,-7.012 4.753,-5.782 4.753,-4.212L4.753,-2.606L-2.336,-2.606C-2.21,-1.744 -1.901,-1.119 -1.408,-0.73C-0.914,-0.341 -0.202,-0.146 0.729,-0.146C1.313,-0.146 1.872,-0.198 2.407,-0.303C2.942,-0.407 3.551,-0.591 4.232,-0.855L4.232,1.522Z" style="fill:rgb(253,199,56);fill-rule:nonzero;"/>
                </g>
                <g transform="matrix(77.5819,0,0,62.7737,-16499.6,9026.7)">
                    <path d="M0,11.279L0,0.25L2.064,0.25L2.502,1.939C3.517,0.646 4.83,0 6.442,0C7.707,0 8.673,0.385 9.341,1.157C10.008,1.928 10.341,3.044 10.341,4.503L10.341,11.279L7.172,11.279L7.172,4.607C7.172,3.259 6.609,2.585 5.483,2.585C4.983,2.585 4.527,2.731 4.118,3.023C3.708,3.315 3.392,3.725 3.169,4.253L3.169,11.279L0,11.279Z" style="fill:rgb(253,199,56);fill-rule:nonzero;"/>
                </g>
                <g transform="matrix(77.5819,0,0,62.7737,-15527.6,9072.49)">
                    <path d="M0,10.07L0,7.568C0.709,7.832 1.355,8.023 1.939,8.141C2.523,8.26 3.128,8.319 3.753,8.319C4.948,8.319 5.546,8.013 5.546,7.401C5.546,7.165 5.432,6.971 5.202,6.817C4.973,6.665 4.594,6.512 4.066,6.359L2.523,5.921C1.592,5.643 0.89,5.254 0.417,4.753C-0.056,4.253 -0.292,3.6 -0.292,2.794C-0.292,1.696 0.125,0.834 0.959,0.208C1.793,-0.417 2.94,-0.73 4.399,-0.73C5.025,-0.73 5.657,-0.674 6.297,-0.563C6.936,-0.452 7.485,-0.299 7.944,-0.104L7.944,2.356C6.804,1.925 5.644,1.709 4.462,1.709C3.35,1.709 2.794,1.994 2.794,2.564C2.794,2.759 2.905,2.933 3.128,3.086C3.35,3.239 3.719,3.391 4.232,3.544L5.775,3.982C6.832,4.288 7.572,4.677 7.996,5.15C8.42,5.622 8.632,6.31 8.632,7.214C8.632,8.395 8.222,9.288 7.401,9.893C6.581,10.497 5.387,10.8 3.815,10.8C3.106,10.8 2.398,10.734 1.689,10.602C0.98,10.47 0.417,10.292 0,10.07" style="fill:rgb(253,199,56);fill-rule:nonzero;"/>
                </g>
                <g transform="matrix(77.5819,0,0,62.7737,-14411.5,9171.96)">
                    <path d="M0,6.901C0.459,6.901 0.883,6.783 1.272,6.547C1.661,6.31 1.981,5.991 2.231,5.588L2.231,3.795L0.751,3.795C0.028,3.795 -0.531,3.934 -0.928,4.211C-1.323,4.49 -1.521,4.886 -1.521,5.4C-1.521,6.401 -1.015,6.901 0,6.901M3.086,8.965L2.669,7.422C2.294,7.978 1.804,8.416 1.199,8.736C0.595,9.055 -0.076,9.215 -0.812,9.215C-1.952,9.215 -2.853,8.903 -3.513,8.277C-4.173,7.652 -4.503,6.79 -4.503,5.692C-4.503,4.538 -4.065,3.628 -3.189,2.961C-2.313,2.293 -1.133,1.96 0.354,1.96L2.169,1.96L2.169,1.564C2.169,0.952 2.016,0.556 1.71,0.375C1.404,0.195 0.925,0.104 0.271,0.104C-0.896,0.104 -2.154,0.368 -3.502,0.896L-3.502,-1.501C-2.946,-1.737 -2.297,-1.932 -1.553,-2.085C-0.81,-2.238 -0.056,-2.314 0.709,-2.314C2.154,-2.314 3.256,-1.984 4.014,-1.324C4.771,-0.664 5.15,0.285 5.15,1.522L5.15,8.965L3.086,8.965Z" style="fill:rgb(253,199,56);fill-rule:nonzero;"/>
                </g>
                <g transform="matrix(77.5819,0,0,62.7737,-38908.8,-5448.56)">
                    <path d="M323.371,226.466L326.874,226.466L326.874,228.905L323.371,228.905L323.371,226.466ZM322.14,244.605L322.599,244.083C322.974,243.652 323.253,243.176 323.433,242.655C323.614,242.134 323.705,241.533 323.705,240.852L323.705,233.075L322.557,232.116L322.557,230.844L326.874,230.844L326.874,240.852C326.874,241.561 326.811,242.179 326.686,242.707C326.56,243.235 326.348,243.743 326.049,244.229C325.751,244.716 325.323,245.258 324.767,245.856L324.163,246.523L322.14,244.605Z" style="fill:rgb(253,199,56);fill-rule:nonzero;"/>
                </g>
                <g transform="matrix(77.5819,0,0,62.7737,-12954,9606.48)">
                    <path d="M0,-6.943C-1.488,-6.943 -2.287,-6.185 -2.398,-4.67L1.938,-4.67C1.91,-5.379 1.723,-5.935 1.376,-6.338C1.028,-6.741 0.569,-6.943 0,-6.943M4.232,1.522C3.161,2.036 1.883,2.293 0.396,2.293C-1.495,2.293 -2.947,1.796 -3.962,0.802C-4.977,-0.191 -5.483,-1.626 -5.483,-3.503C-5.483,-5.296 -4.994,-6.7 -4.014,-7.714C-3.034,-8.729 -1.683,-9.236 0.041,-9.236C1.57,-9.236 2.737,-8.791 3.544,-7.902C4.35,-7.012 4.753,-5.782 4.753,-4.212L4.753,-2.606L-2.336,-2.606C-2.21,-1.744 -1.901,-1.119 -1.408,-0.73C-0.914,-0.341 -0.202,-0.146 0.729,-0.146C1.313,-0.146 1.872,-0.198 2.407,-0.303C2.942,-0.407 3.551,-0.591 4.232,-0.855L4.232,1.522Z" style="fill:rgb(253,199,56);fill-rule:nonzero;"/>
                </g>
                <g transform="matrix(77.5819,0,0,62.7737,-11453.1,9027.96)">
                    <path d="M0,7.11L-0.125,7.443C-0.069,7.332 -0.027,7.221 0,7.11M-4.732,5.734C-4.732,6.846 -4.545,7.701 -4.169,8.298C-3.794,8.896 -3.266,9.195 -2.585,9.195C-2.154,9.195 -1.748,9.087 -1.365,8.872C-0.983,8.656 -0.667,8.368 -0.417,8.006L-0.417,3.295C-0.973,2.627 -1.688,2.294 -2.564,2.294C-3.259,2.294 -3.794,2.589 -4.169,3.18C-4.545,3.771 -4.732,4.622 -4.732,5.734M0.646,11.259L0.209,9.633C-0.681,10.884 -1.834,11.509 -3.252,11.509C-4.698,11.509 -5.837,10.998 -6.671,9.977C-7.505,8.955 -7.922,7.548 -7.922,5.755C-7.922,3.934 -7.516,2.516 -6.702,1.501C-5.89,0.487 -4.746,-0.02 -3.272,-0.02C-2.175,-0.02 -1.237,0.348 -0.458,1.084L-0.458,-4.399L2.711,-4.399L2.711,11.259L0.646,11.259Z" style="fill:rgb(253,199,56);fill-rule:nonzero;"/>
                </g>
                <g transform="matrix(77.5819,0,0,62.7737,-10647.5,9606.48)">
                    <path d="M0,-6.943C-1.488,-6.943 -2.287,-6.185 -2.398,-4.67L1.938,-4.67C1.91,-5.379 1.723,-5.935 1.376,-6.338C1.028,-6.741 0.569,-6.943 0,-6.943M4.232,1.522C3.161,2.036 1.883,2.293 0.396,2.293C-1.495,2.293 -2.947,1.796 -3.962,0.802C-4.977,-0.191 -5.483,-1.626 -5.483,-3.503C-5.483,-5.296 -4.994,-6.7 -4.014,-7.714C-3.034,-8.729 -1.683,-9.236 0.041,-9.236C1.57,-9.236 2.737,-8.791 3.544,-7.902C4.35,-7.012 4.753,-5.782 4.753,-4.212L4.753,-2.606L-2.336,-2.606C-2.21,-1.744 -1.901,-1.119 -1.408,-0.73C-0.914,-0.341 -0.202,-0.146 0.729,-0.146C1.313,-0.146 1.872,-0.198 2.407,-0.303C2.942,-0.407 3.551,-0.591 4.232,-0.855L4.232,1.522Z" style="fill:rgb(253,199,56);fill-rule:nonzero;"/>
                </g>
                <g transform="matrix(77.5819,0,0,62.7737,-9484.6,9779.21)">
                    <path d="M0,-8.256C0,-7.2 0.716,-6.672 2.147,-6.672C3.579,-6.672 4.295,-7.2 4.295,-8.256C4.295,-9.312 3.579,-9.841 2.147,-9.841C0.716,-9.841 0,-9.312 0,-8.256M-0.437,0C-0.437,0.487 -0.232,0.841 0.178,1.064C0.588,1.286 1.244,1.397 2.147,1.397C3.913,1.397 4.796,1.022 4.796,0.271C4.796,-0.007 4.712,-0.212 4.546,-0.344C4.379,-0.476 4.052,-0.584 3.565,-0.667L0.084,-1.272C-0.264,-0.896 -0.437,-0.472 -0.437,0M-3.314,-1.876L-3.669,-3.252L-1.876,-5.817C-2.543,-6.456 -2.877,-7.269 -2.877,-8.256C-2.877,-9.437 -2.464,-10.355 -1.637,-11.008C-0.81,-11.661 0.341,-11.988 1.814,-11.988C2.578,-11.988 3.302,-11.87 3.982,-11.634L7.798,-11.654L7.798,-10.091L6.631,-9.611C6.992,-9.166 7.173,-8.624 7.173,-7.985C7.173,-6.915 6.728,-6.074 5.838,-5.462C4.948,-4.85 3.719,-4.545 2.147,-4.545C1.383,-4.545 0.695,-4.628 0.084,-4.795L-0.708,-3.669L4.212,-3.085C6.616,-2.794 7.818,-1.723 7.818,0.125C7.818,1.237 7.312,2.116 6.297,2.763C5.282,3.409 3.899,3.732 2.147,3.732C0.341,3.732 -1.035,3.468 -1.98,2.94C-2.926,2.412 -3.398,1.64 -3.398,0.626C-3.398,-0.236 -2.995,-1.001 -2.188,-1.668L-3.314,-1.876Z" style="fill:rgb(253,199,56);fill-rule:nonzero;"/>
                </g>
                <g transform="matrix(77.5819,0,0,62.7737,-8491.49,9038.44)">
                    <path d="M0,11.092L-3.169,11.092L-3.169,0.063L-1.104,0.063L-0.667,1.689C-0.306,1.161 0.146,0.748 0.688,0.448C1.23,0.15 1.855,0 2.564,0C2.87,0 3.135,0.021 3.356,0.063L3.356,2.919L2.689,2.919C1.98,2.919 1.39,3.103 0.918,3.472C0.445,3.84 0.139,4.33 0,4.941L0,11.092Z" style="fill:rgb(253,199,56);fill-rule:nonzero;"/>
                </g>
                <g transform="matrix(77.5819,0,0,62.7737,-7776.51,9171.96)">
                    <path d="M0,6.901C0.459,6.901 0.883,6.783 1.272,6.547C1.661,6.31 1.981,5.991 2.231,5.588L2.231,3.795L0.751,3.795C0.028,3.795 -0.531,3.934 -0.928,4.211C-1.323,4.49 -1.521,4.886 -1.521,5.4C-1.521,6.401 -1.015,6.901 0,6.901M3.086,8.965L2.669,7.422C2.294,7.978 1.804,8.416 1.199,8.736C0.595,9.055 -0.076,9.215 -0.812,9.215C-1.952,9.215 -2.853,8.903 -3.513,8.277C-4.173,7.652 -4.503,6.79 -4.503,5.692C-4.503,4.538 -4.065,3.628 -3.189,2.961C-2.313,2.293 -1.133,1.96 0.354,1.96L2.169,1.96L2.169,1.564C2.169,0.952 2.016,0.556 1.71,0.375C1.404,0.195 0.925,0.104 0.271,0.104C-0.896,0.104 -2.154,0.368 -3.502,0.896L-3.502,-1.501C-2.946,-1.737 -2.297,-1.932 -1.553,-2.085C-0.81,-2.238 -0.056,-2.314 0.709,-2.314C2.154,-2.314 3.256,-1.984 4.014,-1.324C4.771,-0.664 5.15,0.285 5.15,1.522L5.15,8.965L3.086,8.965Z" style="fill:rgb(253,199,56);fill-rule:nonzero;"/>
                </g>
                <g transform="matrix(77.5819,0,0,62.7737,-7127.82,9090.82)">
                    <path d="M0,6.463L0,1.605L-1.939,1.605L-1.939,0.021L0.146,-0.834L1.084,-3.941L3.169,-3.941L3.169,-0.772L5.524,-0.772L5.524,1.605L3.169,1.605L3.169,6.296C3.169,6.838 3.304,7.224 3.575,7.453C3.846,7.683 4.238,7.797 4.753,7.797C4.892,7.797 5.045,7.794 5.212,7.787C5.379,7.78 5.524,7.77 5.649,7.756L5.649,10.278C5.316,10.334 5.014,10.369 4.743,10.383C4.472,10.396 4.169,10.404 3.836,10.404C2.571,10.404 1.615,10.084 0.969,9.444C0.322,8.805 0,7.811 0,6.463" style="fill:rgb(253,199,56);fill-rule:nonzero;"/>
                </g>
                <g transform="matrix(77.5819,0,0,62.7737,-38908.8,-5740.46)">
                    <path d="M417.128,231.116L420.631,231.116L420.631,233.555L417.128,233.555L417.128,231.116ZM417.462,246.523L417.462,237.725L416.314,236.766L416.314,235.494L420.63,235.494L420.63,246.523L417.462,246.523Z" style="fill:rgb(253,199,56);fill-rule:nonzero;"/>
                </g>
                <g transform="matrix(77.5819,0,0,62.7737,-6018.26,9090.82)">
                    <path d="M0,6.463L0,1.605L-1.939,1.605L-1.939,0.021L0.146,-0.834L1.084,-3.941L3.169,-3.941L3.169,-0.772L5.524,-0.772L5.524,1.605L3.169,1.605L3.169,6.296C3.169,6.838 3.304,7.224 3.575,7.453C3.846,7.683 4.238,7.797 4.753,7.797C4.892,7.797 5.045,7.794 5.212,7.787C5.379,7.78 5.524,7.77 5.649,7.756L5.649,10.278C5.316,10.334 5.014,10.369 4.743,10.383C4.472,10.396 4.169,10.404 3.836,10.404C2.571,10.404 1.615,10.084 0.969,9.444C0.322,8.805 0,7.811 0,6.463" style="fill:rgb(253,199,56);fill-rule:nonzero;"/>
                </g>
                <g transform="matrix(77.5819,0,0,62.7737,-5431.17,9325.06)">
                    <path d="M0,2.273L0,-4.503L3.169,-4.503L3.169,2.169C3.169,3.517 3.697,4.191 4.754,4.191C5.227,4.191 5.661,4.042 6.057,3.743C6.453,3.444 6.763,3.038 6.984,2.523L6.984,-4.503L10.154,-4.503L10.154,6.526L8.09,6.526L7.652,4.837C6.637,6.13 5.352,6.776 3.795,6.776C2.571,6.776 1.634,6.387 0.98,5.609C0.327,4.83 0,3.719 0,2.273" style="fill:rgb(253,199,56);fill-rule:nonzero;"/>
                </g>
                <g transform="matrix(77.5819,0,0,62.7737,-3859,9027.96)">
                    <path d="M0,7.11L-0.125,7.443C-0.069,7.332 -0.027,7.221 0,7.11M-4.732,5.734C-4.732,6.846 -4.545,7.701 -4.169,8.298C-3.794,8.896 -3.266,9.195 -2.585,9.195C-2.154,9.195 -1.748,9.087 -1.365,8.872C-0.983,8.656 -0.667,8.368 -0.417,8.006L-0.417,3.295C-0.973,2.627 -1.688,2.294 -2.564,2.294C-3.259,2.294 -3.794,2.589 -4.169,3.18C-4.545,3.771 -4.732,4.622 -4.732,5.734M0.646,11.259L0.209,9.633C-0.681,10.884 -1.834,11.509 -3.252,11.509C-4.698,11.509 -5.837,10.998 -6.671,9.977C-7.505,8.955 -7.922,7.548 -7.922,5.755C-7.922,3.934 -7.516,2.516 -6.702,1.501C-5.89,0.487 -4.746,-0.02 -3.272,-0.02C-2.175,-0.02 -1.237,0.348 -0.458,1.084L-0.458,-4.399L2.711,-4.399L2.711,11.259L0.646,11.259Z" style="fill:rgb(253,199,56);fill-rule:nonzero;"/>
                </g>
                <g transform="matrix(77.5819,0,0,62.7737,-38908.8,-5432.93)">
                    <path d="M462.286,226.675L463.974,226.675L463.974,227.947L462.286,227.947L462.286,226.675ZM462.328,246.065L461.556,245.273L461.931,244.877C462.223,244.557 462.438,244.161 462.578,243.688C462.716,243.216 462.786,242.625 462.786,241.916L462.786,231.909L461.744,231.346L461.744,230.825L463.996,230.825L463.996,241.937C463.996,242.757 463.905,243.445 463.724,244.001C463.544,244.557 463.231,245.078 462.786,245.565L462.328,246.065Z" style="fill:rgb(242,239,233);fill-rule:nonzero;"/>
                </g>
                <g transform="matrix(77.5819,0,0,62.7737,-2663.6,9327.68)">
                    <path d="M0,2.377L0,-4.316L1.209,-4.316L1.209,2.335C1.209,4.532 2.141,5.629 4.003,5.629C4.781,5.629 5.497,5.376 6.15,4.868C6.804,4.361 7.297,3.677 7.631,2.815L7.631,-4.316L8.84,-4.316L8.84,6.484L7.943,6.484L7.672,4.524C7.241,5.206 6.695,5.737 6.036,6.119C5.375,6.502 4.628,6.693 3.794,6.693C2.571,6.693 1.633,6.321 0.979,5.577C0.326,4.834 0,3.767 0,2.377" style="fill:rgb(242,239,233);fill-rule:nonzero;"/>
                </g>
                <g transform="matrix(77.5819,0,0,62.7737,-1722.24,9043.71)">
                    <path d="M0,11.008L0,0.208L0.896,0.208L1.167,2.189C1.612,1.494 2.179,0.955 2.866,0.573C3.555,0.191 4.315,0 5.149,0C6.4,0 7.359,0.368 8.026,1.105C8.693,1.841 9.027,2.912 9.027,4.315L9.027,11.008L7.818,11.008L7.818,4.357C7.818,2.161 6.859,1.063 4.94,1.063C4.162,1.063 3.43,1.313 2.741,1.814C2.054,2.314 1.542,3.002 1.209,3.878L1.209,11.008L0,11.008Z" style="fill:rgb(242,239,233);fill-rule:nonzero;"/>
                </g>
                <g transform="matrix(77.5819,0,0,62.7737,-748.53,9052.83)">
                    <path d="M0,8.069L0,1.064L-1.835,1.064L-1.835,0.417L0,0.021L0.396,-2.877L1.209,-2.877L1.209,0.063L3.565,0.063L3.565,1.064L1.209,1.064L1.209,8.069C1.209,8.723 1.342,9.188 1.605,9.466C1.869,9.744 2.308,9.883 2.919,9.883C3.072,9.883 3.204,9.88 3.315,9.872C3.427,9.866 3.552,9.855 3.69,9.841L3.69,10.842C3.412,10.911 3.072,10.946 2.669,10.946C1.737,10.946 1.06,10.72 0.636,10.269C0.212,9.817 0,9.084 0,8.069" style="fill:rgb(242,239,233);fill-rule:nonzero;"/>
                </g>
                <g transform="matrix(77.5819,0,0,62.7737,45.6293,9109.13)">
                    <path d="M0,9.132C1.21,9.132 2.134,8.743 2.773,7.965C3.412,7.186 3.732,6.06 3.732,4.587C3.732,3.1 3.409,1.964 2.763,1.178C2.116,0.393 1.195,0 0,0C-1.195,0 -2.116,0.393 -2.763,1.178C-3.408,1.964 -3.731,3.1 -3.731,4.587C-3.731,6.06 -3.412,7.186 -2.772,7.965C-2.134,8.743 -1.209,9.132 0,9.132M0,10.174C-1.557,10.174 -2.772,9.684 -3.648,8.705C-4.524,7.725 -4.962,6.352 -4.962,4.587C-4.962,2.808 -4.524,1.425 -3.648,0.438C-2.772,-0.549 -1.557,-1.042 0,-1.042C1.557,-1.042 2.773,-0.549 3.648,0.438C4.524,1.425 4.962,2.808 4.962,4.587C4.962,6.352 4.527,7.725 3.659,8.705C2.79,9.684 1.57,10.174 0,10.174" style="fill:rgb(242,239,233);fill-rule:nonzero;"/>
                </g>
                <g transform="matrix(77.5819,0,0,62.7737,1245.8,9109.13)">
                    <path d="M0,9.132C0.737,9.132 1.439,8.889 2.106,8.402C2.773,7.916 3.273,7.29 3.607,6.526L3.607,4.337L0.834,4.337C-1.32,4.337 -2.397,5.15 -2.397,6.776C-2.397,7.527 -2.188,8.107 -1.771,8.517C-1.354,8.927 -0.764,9.132 0,9.132M3.899,9.966L3.649,8.069C3.218,8.722 2.669,9.236 2.002,9.611C1.335,9.987 0.64,10.174 -0.083,10.174C-1.167,10.174 -2.025,9.872 -2.658,9.267C-3.29,8.663 -3.606,7.853 -3.606,6.839C-3.606,5.741 -3.225,4.889 -2.46,4.285C-1.695,3.68 -0.632,3.378 0.73,3.378L3.565,3.378L3.565,2.46C3.565,1.585 3.364,0.956 2.961,0.573C2.558,0.191 1.884,0 0.938,0C-0.174,0 -1.369,0.257 -2.647,0.772L-2.647,-0.271C-2.175,-0.493 -1.602,-0.678 -0.928,-0.823C-0.253,-0.969 0.383,-1.042 0.98,-1.042C2.273,-1.042 3.229,-0.75 3.847,-0.167C4.466,0.417 4.774,1.307 4.774,2.502L4.774,9.966L3.899,9.966Z" style="fill:rgb(242,239,233);fill-rule:nonzero;"/>
                </g>
                <g transform="matrix(77.5819,0,0,62.7737,2573.78,9682.38)">
                    <path d="M0,-9.132C-1.098,-9.132 -1.942,-8.802 -2.533,-8.142C-3.124,-7.481 -3.447,-6.519 -3.502,-5.254L3.19,-5.254L3.19,-5.546C3.19,-7.936 2.127,-9.132 0,-9.132M3.837,0.208C3.447,0.473 2.926,0.678 2.273,0.824C1.619,0.969 0.945,1.042 0.251,1.042C-3.071,1.042 -4.732,-0.862 -4.732,-4.67C-4.732,-6.449 -4.326,-7.811 -3.513,-8.757C-2.699,-9.702 -1.528,-10.174 0,-10.174C2.905,-10.174 4.357,-8.486 4.357,-5.108L4.357,-4.274L-3.502,-4.274C-3.447,-2.828 -3.103,-1.758 -2.47,-1.063C-1.838,-0.368 -0.896,-0.021 0.354,-0.021C1.509,-0.021 2.669,-0.299 3.837,-0.855L3.837,0.208Z" style="fill:rgb(242,239,233);fill-rule:nonzero;"/>
                </g>
                <g transform="matrix(77.5819,0,0,62.7737,3110.87,8751.81)">
                    <path d="M0,15.658L0,1.043L-1.043,0.48L-1.043,0L1.209,0L1.209,15.658L0,15.658Z" style="fill:rgb(242,239,233);fill-rule:nonzero;"/>
                </g>
                <g transform="matrix(77.5819,0,0,62.7737,3460.22,8751.81)">
                    <path d="M0,15.658L0,1.043L-1.043,0.48L-1.043,0L1.209,0L1.209,15.658L0,15.658Z" style="fill:rgb(242,239,233);fill-rule:nonzero;"/>
                </g>
                <g transform="matrix(77.5819,0,0,62.7737,4026.24,9109.13)">
                    <path d="M0,9.132C0.737,9.132 1.439,8.889 2.106,8.402C2.773,7.916 3.273,7.29 3.607,6.526L3.607,4.337L0.834,4.337C-1.32,4.337 -2.397,5.15 -2.397,6.776C-2.397,7.527 -2.188,8.107 -1.771,8.517C-1.354,8.927 -0.764,9.132 0,9.132M3.899,9.966L3.649,8.069C3.218,8.722 2.669,9.236 2.002,9.611C1.335,9.987 0.64,10.174 -0.083,10.174C-1.167,10.174 -2.025,9.872 -2.658,9.267C-3.29,8.663 -3.606,7.853 -3.606,6.839C-3.606,5.741 -3.225,4.889 -2.46,4.285C-1.695,3.68 -0.632,3.378 0.73,3.378L3.565,3.378L3.565,2.46C3.565,1.585 3.364,0.956 2.961,0.573C2.558,0.191 1.884,0 0.938,0C-0.174,0 -1.369,0.257 -2.647,0.772L-2.647,-0.271C-2.175,-0.493 -1.602,-0.678 -0.928,-0.823C-0.253,-0.969 0.383,-1.042 0.98,-1.042C2.273,-1.042 3.229,-0.75 3.847,-0.167C4.466,0.417 4.774,1.307 4.774,2.502L4.774,9.966L3.899,9.966Z" style="fill:rgb(242,239,233);fill-rule:nonzero;"/>
                </g>
                <g transform="matrix(77.5819,0,0,62.7737,-38908.8,-4881.9)">
                    <rect x="561.151" y="231.116" width="1.876" height="1.73" style="fill:rgb(242,239,233);"/>
                </g>
            </g>
        </g>
    </g>
</svg>
